<?xml version="1.0" encoding="UTF-8" standalone="no"?>
<!-- Created with Inkscape (http://www.inkscape.org/) -->

<svg
   version="1.1"
   id="svg1"
   width="512"
   height="512"
   viewBox="0 0 512 512"
   xmlns:xlink="http://www.w3.org/1999/xlink"
   xmlns="http://www.w3.org/2000/svg"
   xmlns:svg="http://www.w3.org/2000/svg">
  <defs
     id="defs1" />
  <g
     id="g1"
     transform="translate(-127.82523,-122.44884)">
    <path
       id="path2"
       style="fill:#f0f0f0;fill-opacity:1;stroke:none;stroke-width:1.22827"
       d="m 487.24886,124.48032 c -3.3388,-0.0103 -6.78123,0.41447 -10.25655,1.33753 -16.33525,4.33848 -26.07103,19.71982 -23.81285,34.50976 1.13493,7.43303 5.32122,13.765 11.26778,18.94551 4.65322,4.05415 10.69413,7.28339 13.2699,12.86652 3.15766,6.84409 1.86468,15.59103 1.86531,22.83316 0.001,14.53938 2.40272,31.05473 -0.79579,45.34389 -3.83482,17.13195 -26.34477,27.64586 -36.27684,41.85589 -6.5327,9.34628 -4.45033,22.013 -4.45033,32.55459 0,20.91861 -0.34301,41.86575 0.0355,62.78157 0.10716,5.91244 0.80849,19.20496 11.22977,17.17201 9.69254,-1.89082 8.17598,-15.32949 8.19355,-21.8204 0.0618,-22.75868 -1.35586,-45.87777 0.18248,-68.59489 1.47936,-21.84602 27.9919,-30.91646 38.09649,-48.83415 4.53627,-8.04353 3.24835,-18.00967 3.24904,-26.74126 0.001,-16.94521 -1.05727,-34.20642 0.18756,-51.11633 0.99808,-13.55794 15.53602,-18.42033 20.63728,-30.28603 9.16371,-21.31544 -9.2497,-42.73327 -32.62226,-42.80737 z m -95.47184,13.56366 c -4.92909,0.0231 -9.86678,0.18806 -14.70435,0.19756 -73.43962,0.14426 -146.40629,27.87268 -181.85298,88.35791 -6.95868,11.87391 -12.04476,24.15666 -15.47735,37.20524 -3.08701,11.73496 -4.91506,23.97562 -4.98507,36.04256 -0.0515,8.88907 2.012,18.05581 -0.86675,26.74127 -7.81178,23.56782 -29.2082,42.96176 -40.76012,65.10918 -1.54895,2.96973 -2.93801,6.05702 -3.61399,9.29222 -3.77293,18.05772 16.87767,21.78037 32.15596,22.0997 -2.85813,14.72175 -7.89439,30.79506 9.08314,39.53056 -1.78485,2.68476 -3.64879,5.33532 -4.76206,8.32032 -4.37093,11.71979 7.04133,18.58008 10.21854,28.88492 3.96972,12.87594 -5.4579,26.49888 1.16833,39.37842 4.66732,9.07222 15.4674,13.13362 25.81501,14.82171 14.75723,2.40742 29.31904,1.09031 44.11811,-0.0385 10.13328,-0.77301 21.89288,-1.80944 30.74685,3.60607 15.03759,9.19754 19.05792,30.59205 19.86938,45.70949 0.41328,7.69864 -1.28375,17.00113 3.93332,23.71198 7.56364,9.72907 20.65096,4.21084 29.79394,-0.19757 15.33664,-7.39443 30.38351,-15.30197 45.41574,-23.17834 9.89671,-5.1854 20.96342,-10.14966 29.11218,-17.50581 10.74075,-9.69605 8.5179,-23.7694 8.51797,-36.31279 1.5e-4,-30.03328 1.29442,-61.56934 -8.15809,-90.68778 -5.66183,-17.44077 -16.17716,-33.46283 -31.03071,-45.91387 -11.76101,-9.85882 -26.05495,-16.73603 -38.64647,-25.63763 -11.29208,-7.98304 -21.01244,-17.72001 -28.9829,-28.43758 -44.39878,-59.70069 -27.89088,-154.71914 45.83135,-190.46567 17.4846,-8.47791 34.32704,-6.56722 53.14298,-8.75177 17.56807,-2.03977 16.55228,-19.2546 -0.42576,-21.22769 -4.8068,-0.55866 -9.72713,-0.67712 -14.6562,-0.654 z m 96.38424,3.94669 c 15.62422,-0.11067 19.63462,23.16918 2.87648,26.97063 -18.63329,4.227 -24.8915,-22.88463 -6.15344,-26.62547 1.14218,-0.228 2.23531,-0.33778 3.27696,-0.34516 z m 88.22863,42.66886 c -7.25471,0.33129 -14.56955,2.81785 -20.94138,8.03419 -13.87556,11.35921 -15.43727,30.78882 -3.97392,44.01998 8.30968,9.59119 21.7856,13.84816 17.64424,28.26046 -2.84973,9.91719 -13.03969,17.43742 -20.76909,24.40912 -12.71121,11.46546 -24.96728,23.31681 -37.56681,34.87992 -7.65192,7.02262 -17.36847,14.72086 -20.63474,24.41594 -3.03475,9.00744 -1.48261,19.76188 -1.48261,29.06659 l 0.002,55.80786 c 0.009,6.17766 -1.47098,25.22981 11.21964,22.1065 10.24165,-2.52042 8.23301,-17.35684 8.23918,-24.43182 l 0.002,-75.57316 36.33256,0.002 c 6.38037,0.005 13.95089,-0.73113 19.92768,1.66907 6.52005,2.61827 9.4244,9.36739 14.04543,13.86114 8.91029,8.66488 22.10668,11.99174 34.78918,9.02879 37.93159,-8.8616 30.80154,-60.50627 -7.77548,-62.36599 -9.57619,-0.46168 -18.33282,2.68904 -25.47789,8.31121 -4.65456,3.66278 -8.45295,8.58239 -14.11893,11.08392 -10.77456,4.75705 -28.05863,2.38317 -39.55626,0.96964 13.59046,-12.75259 27.19832,-25.50326 40.65617,-38.36789 6.80594,-6.50576 15.33804,-12.8417 19.84913,-20.92795 5.16065,-9.25098 0.2406,-20.36001 5.45645,-29.3777 5.61306,-9.70402 17.47642,-13.77943 20.76658,-25.27204 6.35786,-22.20842 -14.87038,-40.6039 -36.63421,-39.61004 z M 397.4996,196.47918 c -6.16957,0.15349 -12.55202,1.92488 -18.67571,5.77017 -11.73398,7.36829 -16.98187,21.28294 -13.69314,33.64913 1.72009,6.46751 5.76668,11.90259 11.04475,16.49076 5.31109,4.61687 11.43318,8.22481 13.07731,15.10781 1.93015,8.08062 0.79577,17.15428 0.79577,25.37423 v 46.50654 c 9e-5,8.77283 -2.33849,21.37682 2.72442,29.29823 6.02242,9.42292 15.2027,1.31355 16.29088,-6.13125 2.63853,-18.05217 0.4486,-37.52358 0.4486,-55.72155 v -47.66921 c 6.87458,-2.48707 12.8486,-5.63396 17.50988,-10.9454 19.9229,-22.70294 -2.7883,-52.39453 -29.52276,-51.72946 z m 180.47679,5.79742 c 16.43751,-0.88681 23.12673,22.72135 5.15744,27.31579 -19.4117,4.9632 -27.8208,-22.06593 -8.57118,-26.80029 1.17792,-0.28976 2.3181,-0.45637 3.41374,-0.5155 z m -177.88921,11.81513 c 16.19743,0.47802 20.36014,24.08084 2.67631,27.42023 -19.82095,3.74303 -26.09317,-24.04136 -6.07487,-27.19542 1.18389,-0.18654 2.31871,-0.25669 3.39856,-0.22481 z m -53.98946,79.87636 c -1.23128,0.0962 -2.51158,0.31586 -3.83449,0.67217 -20.85387,5.61663 -10.9005,34.66345 10.0031,29.24371 19.90307,-5.16045 12.30002,-31.35863 -6.16861,-29.91588 z m 256.78131,41.61745 c 19.45886,-1.53173 22.18339,26.25625 2.49889,27.84944 -19.84391,1.60607 -22.26138,-26.29378 -2.49889,-27.84944 z m -34.43181,79.10883 c -1.02584,0.0237 -2.14353,0.19815 -3.34535,0.54727 -13.16266,3.82358 -23.69484,18.78345 -30.56691,28.77592 -21.76227,31.64371 -29.14439,69.05949 -25.84288,105.8024 1.22038,13.58116 3.75261,27.98839 9.75728,40.59787 2.48836,5.22541 7.57151,12.21405 15.08959,9.97347 6.29429,-1.87561 7.36431,-8.2919 6.44234,-13.3888 -2.4234,-13.39836 -8.26899,-25.76556 -9.38979,-39.50786 -2.41921,-29.66057 2.71264,-59.69237 18.65795,-86.03713 7.23359,-11.9512 19.41785,-21.59418 25.89862,-33.68545 3.24004,-6.04522 0.4811,-13.24345 -6.70085,-13.07769 z m 223.38352,523.77094 c -0.16051,0.007 -0.32101,0.0167 -0.48152,0.025 l -0.34468,0.82204 z" />
    <path
       style="opacity:0;fill:#00ffff;stroke:#0d14ed;stroke-width:0.336571"
       d="m 376.37489,211.19372 c -1.07663,-1.14602 -2.35406,-3.45022 -2.83873,-5.12044 -0.52762,-1.81823 -0.85294,-18.94204 -0.81074,-42.67528 0.0491,-27.5901 -0.23698,-40.44728 -0.94101,-42.29928 -0.55631,-1.46341 -3.93216,-5.66622 -7.50188,-9.33958 -9.06976,-9.33306 -10.72554,-12.765643 -10.73895,-22.262777 -0.009,-6.094937 0.38477,-8.371991 2.0195,-11.689991 6.65043,-13.4983 21.68661,-18.829045 34.72816,-12.312105 11.8816,5.937308 18.45781,19.627303 14.99393,31.213571 -2.06979,6.923212 -6.40101,12.271572 -12.91003,15.941812 l -5.52749,3.11679 0.26233,43.63504 c 0.2834,47.13854 0.16843,48.50729 -4.37478,52.08097 -2.9325,2.30672 -3.9661,2.2598 -6.36031,-0.28873 z M 386.0657,99.722166 c 6.97749,-3.608201 7.15588,-15.451329 0.3138,-20.833307 -2.71609,-2.136483 -9.26015,-2.51366 -12.72426,-0.733384 -7.54116,3.87555 -7.66119,16.787041 -0.19911,21.418167 2.95666,1.834968 9.206,1.908578 12.60957,0.148524 z"
       id="path1"
       transform="translate(131.71941,146.4803)" />
    <path
       style="opacity:0;fill:#000000;fill-opacity:0;stroke:#2514ed;stroke-width:0.336571;stroke-opacity:1"
       d="m 411.80204,244.96383 c -1.72079,-3.89015 -1.77932,-5.61791 -1.53277,-45.24872 0.30441,-48.93231 -1.16456,-43.2114 15.5329,-60.49282 8.00409,-8.28403 11.80074,-12.94793 13.51171,-16.59812 l 2.37961,-5.07671 0.29962,-25.824819 c 0.38815,-33.455047 0.41487,-33.327008 -8.83039,-42.314997 -8.59413,-8.354992 -11.48428,-13.883138 -11.49703,-21.991023 -0.0168,-10.674984 5.96171,-20.4546659 15.04855,-24.6165665 6.20483,-2.84190015 15.99743,-2.62218122 21.95547,0.4926204 9.25462,4.8382173 14.96426,13.9450701 14.96426,23.8679131 0,7.439645 -2.06922,12.082718 -8.731,19.591243 -9.25114,10.42701 -8.9613,8.958088 -8.9613,45.416065 v 31.613144 l -2.42915,5.18488 c -1.76393,3.76505 -5.33819,8.17883 -13.05216,16.1179 -6.58367,6.77578 -11.52543,12.71382 -12.99625,15.61635 -3.45315,6.81445 -4.14863,16.19197 -3.84437,51.83566 0.25758,30.17401 0.22129,30.92856 -1.60596,33.39416 -1.35403,1.82707 -2.77289,2.59923 -5.14605,2.80051 -3.11921,0.26456 -3.3625,0.0837 -5.06569,-3.76667 z M 454.99258,35.997673 c 7.01444,-6.158755 4.16734,-19.311626 -4.53356,-20.943924 -7.91655,-1.485154 -13.65367,3.337707 -13.66001,11.483178 -0.006,7.936965 3.78529,12.200305 10.84996,12.200305 3.44617,0 4.79765,-0.504175 7.34361,-2.739559 z"
       id="path3"
       transform="translate(131.71941,146.4803)" />
    <use
       id="use3"
       xlink:href="#path3"
       transform="translate(-352.2224,46.649013)" />
    <use
       id="use4"
       xlink:href="#path3"
       transform="translate(-296.78396,22.477229)" />
    <use
       id="use5"
       xlink:href="#path3"
       transform="translate(-282.32551,51.494891)" />
    <use
       id="use6"
       xlink:href="#path3"
       transform="translate(-311.20975,49.930909)" />
    <use
       id="use7"
       xlink:href="#path3"
       transform="translate(-310.41469,20.65386)" />
    <use
       id="use8"
       xlink:href="#path3"
       transform="translate(-289.39648,54.453722)" />
    <use
       id="use9"
       xlink:href="#path3"
       transform="translate(-309.26483,21.977843)" />
    <use
       id="use10"
       xlink:href="#path3"
       transform="translate(-315.70352,26.710013)" />
    <use
       id="use11"
       xlink:href="#path3"
       transform="translate(-265.10546,60.754221)" />
    <use
       id="use12"
       xlink:href="#path3"
       transform="translate(-276.49851,25.678483)" />
    <use
       id="use13"
       xlink:href="#path3"
       transform="translate(-298.89936,46.482673)" />
    <use
       id="use14"
       xlink:href="#path3"
       transform="translate(-327.48398,64.258198)" />
    <use
       id="use15"
       xlink:href="#path3"
       transform="translate(-343.59067,44.27312)" />
    <use
       id="use16"
       xlink:href="#path3"
       transform="translate(-374.5122,61.672165)" />
    <use
       id="use17"
       xlink:href="#path3"
       transform="translate(-381.13882,86.322217)" />
    <use
       id="use18"
       xlink:href="#path3"
       transform="translate(-402.03006,99.112803)" />
    <use
       id="use19"
       xlink:href="#path3"
       transform="translate(-413.88852,83.031398)" />
    <use
       id="use20"
       xlink:href="#path3"
       transform="translate(-400.64046,88.811412)" />
    <use
       id="use21"
       xlink:href="#path3"
       transform="translate(-402.13274,41.194894)" />
    <use
       id="use22"
       xlink:href="#path3"
       transform="translate(-385.74622,48.439147)" />
    <use
       id="use23"
       xlink:href="#path3"
       transform="translate(-374.18358,68.149865)" />
    <use
       id="use24"
       xlink:href="#path3"
       transform="translate(-365.19032,53.05568)" />
    <use
       id="use25"
       xlink:href="#path3"
       transform="translate(-382.27512,10.047427)" />
    <use
       id="use26"
       xlink:href="#path3"
       transform="translate(-327.1258,35.423652)" />
    <use
       id="use27"
       xlink:href="#path3"
       transform="translate(-332.61867,27.527025)" />
    <use
       id="use28"
       xlink:href="#path3"
       transform="translate(-331.34076,-9.8029371)" />
    <use
       id="use29"
       xlink:href="#path3"
       transform="translate(-251.97304,2.0889932)" />
    <use
       id="use30"
       xlink:href="#path3"
       transform="translate(-233.93428,8.8018425)" />
    <use
       id="use31"
       xlink:href="#path3"
       transform="translate(-245.86056,-16.995359)" />
    <use
       id="use32"
       xlink:href="#path3"
       transform="translate(-252.84533,17.856004)" />
    <use
       id="use33"
       xlink:href="#path3"
       transform="translate(-183.70003,41.923052)" />
    <use
       id="use34"
       xlink:href="#path3"
       transform="translate(-192.51957,5.1057043)" />
    <use
       id="use35"
       xlink:href="#path3"
       transform="translate(-157.30952,26.520493)" />
    <use
       id="use36"
       xlink:href="#path3"
       transform="translate(-130.33279,26.658047)" />
    <use
       id="use37"
       xlink:href="#path3"
       transform="translate(-142.37376,3.6987329)" />
    <use
       id="use38"
       xlink:href="#path3"
       transform="translate(-107.98984,26.801303)" />
    <use
       id="use39"
       xlink:href="#path3"
       transform="translate(-106.22051,42.888572)" />
    <use
       id="use40"
       xlink:href="#path3"
       transform="translate(-111.85903,43.883116)" />
    <use
       id="use41"
       xlink:href="#path3"
       transform="translate(-101.20566,15.248456)" />
    <use
       id="use42"
       xlink:href="#path3"
       transform="translate(-109.97924,21.574521)" />
    <use
       id="use43"
       xlink:href="#path3"
       transform="translate(-56.178965,-15.619453)" />
    <use
       id="use44"
       xlink:href="#path3"
       transform="translate(-45.313493,17.479802)" />
    <use
       id="use45"
       xlink:href="#path3"
       transform="translate(6.4189439,22.608633)" />
    <use
       id="use46"
       xlink:href="#path3"
       transform="translate(-5.5290699,-24.661452)" />
    <use
       id="use47"
       xlink:href="#path3"
       transform="translate(3.4739508,25.752267)" />
    <use
       id="use48"
       xlink:href="#path3"
       transform="translate(4.4062836,-17.424105)" />
    <use
       id="use49"
       xlink:href="#path3"
       transform="translate(7.4655583,17.56217)" />
    <use
       id="use50"
       xlink:href="#path3"
       transform="translate(10.734987,18.255584)" />
    <use
       id="use51"
       xlink:href="#path3"
       transform="translate(4.2307217,-0.33220609)" />
    <use
       id="use52"
       xlink:href="#path3"
       transform="translate(38.944069,-13.707333)" />
    <use
       id="use53"
       xlink:href="#path3"
       transform="translate(30.152476,-12.40448)" />
    <use
       id="use54"
       xlink:href="#path3"
       transform="translate(38.064484,-10.259345)" />
    <use
       id="use55"
       xlink:href="#path3"
       transform="translate(47.175542,-17.087338)" />
    <use
       id="use56"
       xlink:href="#path3"
       transform="translate(30.818965,-0.84003347)" />
    <use
       id="use57"
       xlink:href="#path3"
       transform="translate(-33.36543,25.122093)" />
    <use
       id="use58"
       xlink:href="#path3"
       transform="translate(-63.146069,25.020308)" />
    <use
       id="use59"
       xlink:href="#path3"
       transform="translate(-61.850833,16.354746)" />
    <use
       id="use60"
       xlink:href="#path3"
       transform="translate(-22.969243,10.697954)" />
    <use
       id="use61"
       xlink:href="#path3"
       transform="translate(-18.133175,16.252357)" />
    <use
       id="use62"
       xlink:href="#path3"
       transform="translate(-30.031028,28.996101)" />
    <use
       id="use63"
       xlink:href="#path3"
       transform="translate(-52.533579,20.340294)" />
    <use
       id="use64"
       xlink:href="#path3"
       transform="translate(-29.901788,48.527316)" />
    <use
       id="use65"
       xlink:href="#path3"
       transform="translate(-44.368366,38.818749)" />
    <use
       id="use66"
       xlink:href="#path3"
       transform="translate(-8.6542284,27.401997)" />
    <use
       id="use67"
       xlink:href="#path3"
       transform="translate(-32.352111,27.599763)" />
    <use
       id="use68"
       xlink:href="#path3"
       transform="translate(-40.059389,21.912264)" />
    <use
       id="use69"
       xlink:href="#path3"
       transform="translate(-24.232703,26.019566)" />
    <path
       style="opacity:0;fill:none;fill-opacity:0;stroke:#2514ed;stroke-width:0.336571;stroke-opacity:1"
       d="m 411.80204,244.96383 c -1.72079,-3.89015 -1.77932,-5.61791 -1.53277,-45.24872 0.30441,-48.93231 -1.16456,-43.2114 15.5329,-60.49282 8.00409,-8.28403 11.80074,-12.94793 13.51171,-16.59812 l 2.37961,-5.07671 0.29962,-25.824819 c 0.38815,-33.455047 0.41487,-33.327008 -8.83039,-42.314997 -8.59413,-8.354992 -11.48428,-13.883138 -11.49703,-21.991023 -0.0168,-10.674984 5.96171,-20.4546659 15.04855,-24.6165665 6.20483,-2.84190015 15.99743,-2.62218122 21.95547,0.4926204 9.25462,4.8382173 14.96426,13.9450701 14.96426,23.8679131 0,7.439645 -2.06922,12.082718 -8.731,19.591243 -9.25114,10.42701 -8.9613,8.958088 -8.9613,45.416065 v 31.613144 l -2.42915,5.18488 c -1.76393,3.76505 -5.33819,8.17883 -13.05216,16.1179 -6.58367,6.77578 -11.52543,12.71382 -12.99625,15.61635 -3.45315,6.81445 -4.14863,16.19197 -3.84437,51.83566 0.25758,30.17401 0.22129,30.92856 -1.60596,33.39416 -1.35403,1.82707 -2.77289,2.59923 -5.14605,2.80051 -3.11921,0.26456 -3.3625,0.0837 -5.06569,-3.76667 z M 454.99258,35.997673 c 7.01444,-6.158755 4.16734,-19.311626 -4.53356,-20.943924 -7.91655,-1.485154 -13.65367,3.337707 -13.66001,11.483178 -0.006,7.936965 3.78529,12.200305 10.84996,12.200305 3.44617,0 4.79765,-0.504175 7.34361,-2.739559 z"
       id="path69"
       transform="translate(131.71941,146.4803)" />
    <path
       style="opacity:0;fill:none;fill-opacity:0;stroke:#2514ed;stroke-width:0.336571;stroke-opacity:1"
       d="m 411.80204,244.96383 c -1.72079,-3.89015 -1.77932,-5.61791 -1.53277,-45.24872 0.30441,-48.93231 -1.16456,-43.2114 15.5329,-60.49282 8.00409,-8.28403 11.80074,-12.94793 13.51171,-16.59812 l 2.37961,-5.07671 0.29962,-25.824819 c 0.38815,-33.455047 0.41487,-33.327008 -8.83039,-42.314997 -8.59413,-8.354992 -11.48428,-13.883138 -11.49703,-21.991023 -0.0168,-10.674984 5.96171,-20.4546659 15.04855,-24.6165665 6.20483,-2.84190015 15.99743,-2.62218122 21.95547,0.4926204 9.25462,4.8382173 14.96426,13.9450701 14.96426,23.8679131 0,7.439645 -2.06922,12.082718 -8.731,19.591243 -9.25114,10.42701 -8.9613,8.958088 -8.9613,45.416065 v 31.613144 l -2.42915,5.18488 c -1.76393,3.76505 -5.33819,8.17883 -13.05216,16.1179 -6.58367,6.77578 -11.52543,12.71382 -12.99625,15.61635 -3.45315,6.81445 -4.14863,16.19197 -3.84437,51.83566 0.25758,30.17401 0.22129,30.92856 -1.60596,33.39416 -1.35403,1.82707 -2.77289,2.59923 -5.14605,2.80051 -3.11921,0.26456 -3.3625,0.0837 -5.06569,-3.76667 z M 454.99258,35.997673 c 7.01444,-6.158755 4.16734,-19.311626 -4.53356,-20.943924 -7.91655,-1.485154 -13.65367,3.337707 -13.66001,11.483178 -0.006,7.936965 3.78529,12.200305 10.84996,12.200305 3.44617,0 4.79765,-0.504175 7.34361,-2.739559 z"
       id="path70"
       transform="translate(131.71941,146.4803)" />
    <path
       style="opacity:0;fill:none;fill-opacity:0;stroke:#2514ed;stroke-width:0.336571;stroke-opacity:1"
       d="m 411.80204,244.96383 c -1.72079,-3.89015 -1.77932,-5.61791 -1.53277,-45.24872 0.30441,-48.93231 -1.16456,-43.2114 15.5329,-60.49282 8.00409,-8.28403 11.80074,-12.94793 13.51171,-16.59812 l 2.37961,-5.07671 0.29962,-25.824819 c 0.38815,-33.455047 0.41487,-33.327008 -8.83039,-42.314997 -8.59413,-8.354992 -11.48428,-13.883138 -11.49703,-21.991023 -0.0168,-10.674984 5.96171,-20.4546659 15.04855,-24.6165665 6.20483,-2.84190015 15.99743,-2.62218122 21.95547,0.4926204 9.25462,4.8382173 14.96426,13.9450701 14.96426,23.8679131 0,7.439645 -2.06922,12.082718 -8.731,19.591243 -9.25114,10.42701 -8.9613,8.958088 -8.9613,45.416065 v 31.613144 l -2.42915,5.18488 c -1.76393,3.76505 -5.33819,8.17883 -13.05216,16.1179 -6.58367,6.77578 -11.52543,12.71382 -12.99625,15.61635 -3.45315,6.81445 -4.14863,16.19197 -3.84437,51.83566 0.25758,30.17401 0.22129,30.92856 -1.60596,33.39416 -1.35403,1.82707 -2.77289,2.59923 -5.14605,2.80051 -3.11921,0.26456 -3.3625,0.0837 -5.06569,-3.76667 z M 454.99258,35.997673 c 7.01444,-6.158755 4.16734,-19.311626 -4.53356,-20.943924 -7.91655,-1.485154 -13.65367,3.337707 -13.66001,11.483178 -0.006,7.936965 3.78529,12.200305 10.84996,12.200305 3.44617,0 4.79765,-0.504175 7.34361,-2.739559 z"
       id="path71"
       transform="translate(131.71941,146.4803)" />
    <path
       style="opacity:0;fill:none;fill-opacity:0;stroke:#2514ed;stroke-width:0.336571;stroke-opacity:1"
       d="m 411.80204,244.96383 c -1.72079,-3.89015 -1.77932,-5.61791 -1.53277,-45.24872 0.30441,-48.93231 -1.16456,-43.2114 15.5329,-60.49282 8.00409,-8.28403 11.80074,-12.94793 13.51171,-16.59812 l 2.37961,-5.07671 0.29962,-25.824819 c 0.38815,-33.455047 0.41487,-33.327008 -8.83039,-42.314997 -8.59413,-8.354992 -11.48428,-13.883138 -11.49703,-21.991023 -0.0168,-10.674984 5.96171,-20.4546659 15.04855,-24.6165665 6.20483,-2.84190015 15.99743,-2.62218122 21.95547,0.4926204 9.25462,4.8382173 14.96426,13.9450701 14.96426,23.8679131 0,7.439645 -2.06922,12.082718 -8.731,19.591243 -9.25114,10.42701 -8.9613,8.958088 -8.9613,45.416065 v 31.613144 l -2.42915,5.18488 c -1.76393,3.76505 -5.33819,8.17883 -13.05216,16.1179 -6.58367,6.77578 -11.52543,12.71382 -12.99625,15.61635 -3.45315,6.81445 -4.14863,16.19197 -3.84437,51.83566 0.25758,30.17401 0.22129,30.92856 -1.60596,33.39416 -1.35403,1.82707 -2.77289,2.59923 -5.14605,2.80051 -3.11921,0.26456 -3.3625,0.0837 -5.06569,-3.76667 z M 454.99258,35.997673 c 7.01444,-6.158755 4.16734,-19.311626 -4.53356,-20.943924 -7.91655,-1.485154 -13.65367,3.337707 -13.66001,11.483178 -0.006,7.936965 3.78529,12.200305 10.84996,12.200305 3.44617,0 4.79765,-0.504175 7.34361,-2.739559 z"
       id="path72"
       transform="translate(131.71941,146.4803)" />
    <path
       style="opacity:0;fill:none;fill-opacity:0;stroke:#2514ed;stroke-width:0.336571;stroke-opacity:1"
       d="m 411.80204,244.96383 c -1.72079,-3.89015 -1.77932,-5.61791 -1.53277,-45.24872 0.30441,-48.93231 -1.16456,-43.2114 15.5329,-60.49282 8.00409,-8.28403 11.80074,-12.94793 13.51171,-16.59812 l 2.37961,-5.07671 0.29962,-25.824819 c 0.38815,-33.455047 0.41487,-33.327008 -8.83039,-42.314997 -8.59413,-8.354992 -11.48428,-13.883138 -11.49703,-21.991023 -0.0168,-10.674984 5.96171,-20.4546659 15.04855,-24.6165665 6.20483,-2.84190015 15.99743,-2.62218122 21.95547,0.4926204 9.25462,4.8382173 14.96426,13.9450701 14.96426,23.8679131 0,7.439645 -2.06922,12.082718 -8.731,19.591243 -9.25114,10.42701 -8.9613,8.958088 -8.9613,45.416065 v 31.613144 l -2.42915,5.18488 c -1.76393,3.76505 -5.33819,8.17883 -13.05216,16.1179 -6.58367,6.77578 -11.52543,12.71382 -12.99625,15.61635 -3.45315,6.81445 -4.14863,16.19197 -3.84437,51.83566 0.25758,30.17401 0.22129,30.92856 -1.60596,33.39416 -1.35403,1.82707 -2.77289,2.59923 -5.14605,2.80051 -3.11921,0.26456 -3.3625,0.0837 -5.06569,-3.76667 z M 454.99258,35.997673 c 7.01444,-6.158755 4.16734,-19.311626 -4.53356,-20.943924 -7.91655,-1.485154 -13.65367,3.337707 -13.66001,11.483178 -0.006,7.936965 3.78529,12.200305 10.84996,12.200305 3.44617,0 4.79765,-0.504175 7.34361,-2.739559 z"
       id="path73"
       transform="translate(131.71941,146.4803)" />
    <path
       style="opacity:0;fill:none;fill-opacity:0;stroke:#2514ed;stroke-width:0.336571;stroke-opacity:1"
       d="m 411.80204,244.96383 c -1.72079,-3.89015 -1.77932,-5.61791 -1.53277,-45.24872 0.30441,-48.93231 -1.16456,-43.2114 15.5329,-60.49282 8.00409,-8.28403 11.80074,-12.94793 13.51171,-16.59812 l 2.37961,-5.07671 0.29962,-25.824819 c 0.38815,-33.455047 0.41487,-33.327008 -8.83039,-42.314997 -8.59413,-8.354992 -11.48428,-13.883138 -11.49703,-21.991023 -0.0168,-10.674984 5.96171,-20.4546659 15.04855,-24.6165665 6.20483,-2.84190015 15.99743,-2.62218122 21.95547,0.4926204 9.25462,4.8382173 14.96426,13.9450701 14.96426,23.8679131 0,7.439645 -2.06922,12.082718 -8.731,19.591243 -9.25114,10.42701 -8.9613,8.958088 -8.9613,45.416065 v 31.613144 l -2.42915,5.18488 c -1.76393,3.76505 -5.33819,8.17883 -13.05216,16.1179 -6.58367,6.77578 -11.52543,12.71382 -12.99625,15.61635 -3.45315,6.81445 -4.14863,16.19197 -3.84437,51.83566 0.25758,30.17401 0.22129,30.92856 -1.60596,33.39416 -1.35403,1.82707 -2.77289,2.59923 -5.14605,2.80051 -3.11921,0.26456 -3.3625,0.0837 -5.06569,-3.76667 z M 454.99258,35.997673 c 7.01444,-6.158755 4.16734,-19.311626 -4.53356,-20.943924 -7.91655,-1.485154 -13.65367,3.337707 -13.66001,11.483178 -0.006,7.936965 3.78529,12.200305 10.84996,12.200305 3.44617,0 4.79765,-0.504175 7.34361,-2.739559 z"
       id="path74"
       transform="translate(131.71941,146.4803)" />
    <path
       style="opacity:0;fill:none;fill-opacity:0;stroke:#2514ed;stroke-width:0.336571;stroke-opacity:1"
       d="m 411.80204,244.96383 c -1.72079,-3.89015 -1.77932,-5.61791 -1.53277,-45.24872 0.30441,-48.93231 -1.16456,-43.2114 15.5329,-60.49282 8.00409,-8.28403 11.80074,-12.94793 13.51171,-16.59812 l 2.37961,-5.07671 0.29962,-25.824819 c 0.38815,-33.455047 0.41487,-33.327008 -8.83039,-42.314997 -8.59413,-8.354992 -11.48428,-13.883138 -11.49703,-21.991023 -0.0168,-10.674984 5.96171,-20.4546659 15.04855,-24.6165665 6.20483,-2.84190015 15.99743,-2.62218122 21.95547,0.4926204 9.25462,4.8382173 14.96426,13.9450701 14.96426,23.8679131 0,7.439645 -2.06922,12.082718 -8.731,19.591243 -9.25114,10.42701 -8.9613,8.958088 -8.9613,45.416065 v 31.613144 l -2.42915,5.18488 c -1.76393,3.76505 -5.33819,8.17883 -13.05216,16.1179 -6.58367,6.77578 -11.52543,12.71382 -12.99625,15.61635 -3.45315,6.81445 -4.14863,16.19197 -3.84437,51.83566 0.25758,30.17401 0.22129,30.92856 -1.60596,33.39416 -1.35403,1.82707 -2.77289,2.59923 -5.14605,2.80051 -3.11921,0.26456 -3.3625,0.0837 -5.06569,-3.76667 z M 454.99258,35.997673 c 7.01444,-6.158755 4.16734,-19.311626 -4.53356,-20.943924 -7.91655,-1.485154 -13.65367,3.337707 -13.66001,11.483178 -0.006,7.936965 3.78529,12.200305 10.84996,12.200305 3.44617,0 4.79765,-0.504175 7.34361,-2.739559 z"
       id="path75"
       transform="translate(131.71941,146.4803)" />
    <path
       style="opacity:0;fill:none;fill-opacity:0;stroke:#2514ed;stroke-width:0.336571;stroke-opacity:1"
       d="m 411.80204,244.96383 c -1.72079,-3.89015 -1.77932,-5.61791 -1.53277,-45.24872 0.30441,-48.93231 -1.16456,-43.2114 15.5329,-60.49282 8.00409,-8.28403 11.80074,-12.94793 13.51171,-16.59812 l 2.37961,-5.07671 0.29962,-25.824819 c 0.38815,-33.455047 0.41487,-33.327008 -8.83039,-42.314997 -8.59413,-8.354992 -11.48428,-13.883138 -11.49703,-21.991023 -0.0168,-10.674984 5.96171,-20.4546659 15.04855,-24.6165665 6.20483,-2.84190015 15.99743,-2.62218122 21.95547,0.4926204 9.25462,4.8382173 14.96426,13.9450701 14.96426,23.8679131 0,7.439645 -2.06922,12.082718 -8.731,19.591243 -9.25114,10.42701 -8.9613,8.958088 -8.9613,45.416065 v 31.613144 l -2.42915,5.18488 c -1.76393,3.76505 -5.33819,8.17883 -13.05216,16.1179 -6.58367,6.77578 -11.52543,12.71382 -12.99625,15.61635 -3.45315,6.81445 -4.14863,16.19197 -3.84437,51.83566 0.25758,30.17401 0.22129,30.92856 -1.60596,33.39416 -1.35403,1.82707 -2.77289,2.59923 -5.14605,2.80051 -3.11921,0.26456 -3.3625,0.0837 -5.06569,-3.76667 z M 454.99258,35.997673 c 7.01444,-6.158755 4.16734,-19.311626 -4.53356,-20.943924 -7.91655,-1.485154 -13.65367,3.337707 -13.66001,11.483178 -0.006,7.936965 3.78529,12.200305 10.84996,12.200305 3.44617,0 4.79765,-0.504175 7.34361,-2.739559 z"
       id="path76"
       transform="translate(131.71941,146.4803)" />
    <path
       style="opacity:0;fill:none;fill-opacity:0;stroke:#2514ed;stroke-width:0.336571;stroke-opacity:1"
       d="m 452.09491,283.37597 c -2.35016,-2.83177 -2.66403,-7.75637 -2.93778,-46.09426 -0.32321,-45.26321 -0.29725,-45.49767 5.90021,-53.29182 1.70905,-2.14937 14.10087,-15.23572 27.53736,-29.08078 13.4365,-13.84506 25.24815,-26.77653 26.24811,-28.73661 2.48871,-4.87829 3.17516,-9.99916 1.87035,-13.95278 -0.63779,-1.93251 -4.00566,-6.38604 -8.18315,-10.82102 -8.6926,-9.228419 -10.81058,-13.590608 -10.81571,-22.27608 -0.005,-8.161321 2.93284,-14.546699 9.34447,-20.311304 10.79419,-9.704907 26.34704,-8.369933 36.70495,3.150556 5.10611,5.679223 7.16078,11.627628 6.56785,19.014339 -0.55689,6.937684 -2.04746,9.776181 -9.04232,17.219343 -7.74463,8.240986 -8.69621,10.414456 -9.44218,21.566596 -0.47033,7.0314 -1.12162,10.33272 -2.61627,13.26159 -1.13012,2.21454 -11.60616,14.04815 -24.24357,27.38527 -18.40722,19.42639 -21.9725,23.59677 -20.62764,24.12861 0.89423,0.35364 7.2361,0.65326 14.09303,0.66583 14.51063,0.0266 15.52001,-0.32958 24.03981,-8.48277 7.99015,-7.64636 11.73771,-9.30879 20.931,-9.28507 8.69733,0.0224 12.48647,1.54994 17.9889,7.25174 5.33012,5.52324 7.37178,11.02409 7.38197,19.88932 0.008,6.82816 -0.26181,8.04893 -2.75392,12.46715 -6.04098,10.71002 -18.32521,15.63612 -30.13138,12.08298 -6.088,-1.83221 -10.25432,-5.04793 -15.11241,-11.66432 -6.57415,-8.95354 -6.31384,-8.87851 -30.80382,-8.87851 h -20.92701 l -0.0704,38.29268 c -0.0387,21.06098 -0.36897,39.49456 -0.7339,40.96351 -1.3473,5.42331 -7.48587,8.76583 -10.16656,5.53581 z m 90.23543,-78.50483 c 8.39889,-3.50928 8.95159,-17.11048 0.90945,-22.37989 -1.66953,-1.09392 -3.49847,-1.3793 -6.80409,-1.06167 -6.45358,0.62011 -9.83865,4.11201 -10.38613,10.71394 -0.86361,10.41395 7.03666,16.59005 16.28077,12.72762 z M 524.07966,89.618632 c 2.13013,-1.13873 3.61833,-2.893556 4.747,-5.59748 4.09465,-9.80939 -4.54466,-19.892401 -14.49089,-16.912439 -5.19195,1.555546 -8.08023,5.460171 -8.08023,10.923553 0,5.42314 1.84441,9.204787 5.60893,11.500148 3.59355,2.191113 8.21669,2.223744 12.21519,0.08622 z"
       id="path77"
       transform="translate(131.71941,146.4803)" />
    <path
       style="opacity:0;fill:none;fill-opacity:0;stroke:#2514ed;stroke-width:0.336571;stroke-opacity:1"
       d="m 452.09491,283.37597 c -2.35016,-2.83177 -2.66403,-7.75637 -2.93778,-46.09426 -0.32321,-45.26321 -0.29725,-45.49767 5.90021,-53.29182 1.70905,-2.14937 14.10087,-15.23572 27.53736,-29.08078 13.4365,-13.84506 25.24815,-26.77653 26.24811,-28.73661 2.48871,-4.87829 3.17516,-9.99916 1.87035,-13.95278 -0.63779,-1.93251 -4.00566,-6.38604 -8.18315,-10.82102 -8.6926,-9.228419 -10.81058,-13.590608 -10.81571,-22.27608 -0.005,-8.161321 2.93284,-14.546699 9.34447,-20.311304 10.79419,-9.704907 26.34704,-8.369933 36.70495,3.150556 5.10611,5.679223 7.16078,11.627628 6.56785,19.014339 -0.55689,6.937684 -2.04746,9.776181 -9.04232,17.219343 -7.74463,8.240986 -8.69621,10.414456 -9.44218,21.566596 -0.47033,7.0314 -1.12162,10.33272 -2.61627,13.26159 -1.13012,2.21454 -11.60616,14.04815 -24.24357,27.38527 -18.40722,19.42639 -21.9725,23.59677 -20.62764,24.12861 0.89423,0.35364 7.2361,0.65326 14.09303,0.66583 14.51063,0.0266 15.52001,-0.32958 24.03981,-8.48277 7.99015,-7.64636 11.73771,-9.30879 20.931,-9.28507 8.69733,0.0224 12.48647,1.54994 17.9889,7.25174 5.33012,5.52324 7.37178,11.02409 7.38197,19.88932 0.008,6.82816 -0.26181,8.04893 -2.75392,12.46715 -6.04098,10.71002 -18.32521,15.63612 -30.13138,12.08298 -6.088,-1.83221 -10.25432,-5.04793 -15.11241,-11.66432 -6.57415,-8.95354 -6.31384,-8.87851 -30.80382,-8.87851 h -20.92701 l -0.0704,38.29268 c -0.0387,21.06098 -0.36897,39.49456 -0.7339,40.96351 -1.3473,5.42331 -7.48587,8.76583 -10.16656,5.53581 z m 90.23543,-78.50483 c 8.39889,-3.50928 8.95159,-17.11048 0.90945,-22.37989 -1.66953,-1.09392 -3.49847,-1.3793 -6.80409,-1.06167 -6.45358,0.62011 -9.83865,4.11201 -10.38613,10.71394 -0.86361,10.41395 7.03666,16.59005 16.28077,12.72762 z M 524.07966,89.618632 c 2.13013,-1.13873 3.61833,-2.893556 4.747,-5.59748 4.09465,-9.80939 -4.54466,-19.892401 -14.49089,-16.912439 -5.19195,1.555546 -8.08023,5.460171 -8.08023,10.923553 0,5.42314 1.84441,9.204787 5.60893,11.500148 3.59355,2.191113 8.21669,2.223744 12.21519,0.08622 z"
       id="path78"
       transform="translate(131.71941,146.4803)" />
    <path
       style="opacity:0;fill:none;fill-opacity:0;stroke:#2514ed;stroke-width:0.336571;stroke-opacity:1"
       d="m 452.09491,283.37597 c -2.35016,-2.83177 -2.66403,-7.75637 -2.93778,-46.09426 -0.32321,-45.26321 -0.29725,-45.49767 5.90021,-53.29182 1.70905,-2.14937 14.10087,-15.23572 27.53736,-29.08078 13.4365,-13.84506 25.24815,-26.77653 26.24811,-28.73661 2.48871,-4.87829 3.17516,-9.99916 1.87035,-13.95278 -0.63779,-1.93251 -4.00566,-6.38604 -8.18315,-10.82102 -8.6926,-9.228419 -10.81058,-13.590608 -10.81571,-22.27608 -0.005,-8.161321 2.93284,-14.546699 9.34447,-20.311304 10.79419,-9.704907 26.34704,-8.369933 36.70495,3.150556 5.10611,5.679223 7.16078,11.627628 6.56785,19.014339 -0.55689,6.937684 -2.04746,9.776181 -9.04232,17.219343 -7.74463,8.240986 -8.69621,10.414456 -9.44218,21.566596 -0.47033,7.0314 -1.12162,10.33272 -2.61627,13.26159 -1.13012,2.21454 -11.60616,14.04815 -24.24357,27.38527 -18.40722,19.42639 -21.9725,23.59677 -20.62764,24.12861 0.89423,0.35364 7.2361,0.65326 14.09303,0.66583 14.51063,0.0266 15.52001,-0.32958 24.03981,-8.48277 7.99015,-7.64636 11.73771,-9.30879 20.931,-9.28507 8.69733,0.0224 12.48647,1.54994 17.9889,7.25174 5.33012,5.52324 7.37178,11.02409 7.38197,19.88932 0.008,6.82816 -0.26181,8.04893 -2.75392,12.46715 -6.04098,10.71002 -18.32521,15.63612 -30.13138,12.08298 -6.088,-1.83221 -10.25432,-5.04793 -15.11241,-11.66432 -6.57415,-8.95354 -6.31384,-8.87851 -30.80382,-8.87851 h -20.92701 l -0.0704,38.29268 c -0.0387,21.06098 -0.36897,39.49456 -0.7339,40.96351 -1.3473,5.42331 -7.48587,8.76583 -10.16656,5.53581 z m 90.23543,-78.50483 c 8.39889,-3.50928 8.95159,-17.11048 0.90945,-22.37989 -1.66953,-1.09392 -3.49847,-1.3793 -6.80409,-1.06167 -6.45358,0.62011 -9.83865,4.11201 -10.38613,10.71394 -0.86361,10.41395 7.03666,16.59005 16.28077,12.72762 z M 524.07966,89.618632 c 2.13013,-1.13873 3.61833,-2.893556 4.747,-5.59748 4.09465,-9.80939 -4.54466,-19.892401 -14.49089,-16.912439 -5.19195,1.555546 -8.08023,5.460171 -8.08023,10.923553 0,5.42314 1.84441,9.204787 5.60893,11.500148 3.59355,2.191113 8.21669,2.223744 12.21519,0.08622 z"
       id="path79"
       transform="translate(131.71941,146.4803)" />
    <path
       style="opacity:0;fill:none;fill-opacity:0;stroke:#2514ed;stroke-width:0.336571;stroke-opacity:1"
       d="m 452.09491,283.37597 c -2.35016,-2.83177 -2.66403,-7.75637 -2.93778,-46.09426 -0.32321,-45.26321 -0.29725,-45.49767 5.90021,-53.29182 1.70905,-2.14937 14.10087,-15.23572 27.53736,-29.08078 13.4365,-13.84506 25.24815,-26.77653 26.24811,-28.73661 2.48871,-4.87829 3.17516,-9.99916 1.87035,-13.95278 -0.63779,-1.93251 -4.00566,-6.38604 -8.18315,-10.82102 -8.6926,-9.228419 -10.81058,-13.590608 -10.81571,-22.27608 -0.005,-8.161321 2.93284,-14.546699 9.34447,-20.311304 10.79419,-9.704907 26.34704,-8.369933 36.70495,3.150556 5.10611,5.679223 7.16078,11.627628 6.56785,19.014339 -0.55689,6.937684 -2.04746,9.776181 -9.04232,17.219343 -7.74463,8.240986 -8.69621,10.414456 -9.44218,21.566596 -0.47033,7.0314 -1.12162,10.33272 -2.61627,13.26159 -1.13012,2.21454 -11.60616,14.04815 -24.24357,27.38527 -18.40722,19.42639 -21.9725,23.59677 -20.62764,24.12861 0.89423,0.35364 7.2361,0.65326 14.09303,0.66583 14.51063,0.0266 15.52001,-0.32958 24.03981,-8.48277 7.99015,-7.64636 11.73771,-9.30879 20.931,-9.28507 8.69733,0.0224 12.48647,1.54994 17.9889,7.25174 5.33012,5.52324 7.37178,11.02409 7.38197,19.88932 0.008,6.82816 -0.26181,8.04893 -2.75392,12.46715 -6.04098,10.71002 -18.32521,15.63612 -30.13138,12.08298 -6.088,-1.83221 -10.25432,-5.04793 -15.11241,-11.66432 -6.57415,-8.95354 -6.31384,-8.87851 -30.80382,-8.87851 h -20.92701 l -0.0704,38.29268 c -0.0387,21.06098 -0.36897,39.49456 -0.7339,40.96351 -1.3473,5.42331 -7.48587,8.76583 -10.16656,5.53581 z m 90.23543,-78.50483 c 8.39889,-3.50928 8.95159,-17.11048 0.90945,-22.37989 -1.66953,-1.09392 -3.49847,-1.3793 -6.80409,-1.06167 -6.45358,0.62011 -9.83865,4.11201 -10.38613,10.71394 -0.86361,10.41395 7.03666,16.59005 16.28077,12.72762 z M 524.07966,89.618632 c 2.13013,-1.13873 3.61833,-2.893556 4.747,-5.59748 4.09465,-9.80939 -4.54466,-19.892401 -14.49089,-16.912439 -5.19195,1.555546 -8.08023,5.460171 -8.08023,10.923553 0,5.42314 1.84441,9.204787 5.60893,11.500148 3.59355,2.191113 8.21669,2.223744 12.21519,0.08622 z"
       id="path80"
       transform="translate(131.71941,146.4803)" />
    <path
       style="opacity:0;fill:none;fill-opacity:0;stroke:#2514ed;stroke-width:0.336571;stroke-opacity:1"
       d="m 452.09491,283.37597 c -2.35016,-2.83177 -2.66403,-7.75637 -2.93778,-46.09426 -0.32321,-45.26321 -0.29725,-45.49767 5.90021,-53.29182 1.70905,-2.14937 14.10087,-15.23572 27.53736,-29.08078 13.4365,-13.84506 25.24815,-26.77653 26.24811,-28.73661 2.48871,-4.87829 3.17516,-9.99916 1.87035,-13.95278 -0.63779,-1.93251 -4.00566,-6.38604 -8.18315,-10.82102 -8.6926,-9.228419 -10.81058,-13.590608 -10.81571,-22.27608 -0.005,-8.161321 2.93284,-14.546699 9.34447,-20.311304 10.79419,-9.704907 26.34704,-8.369933 36.70495,3.150556 5.10611,5.679223 7.16078,11.627628 6.56785,19.014339 -0.55689,6.937684 -2.04746,9.776181 -9.04232,17.219343 -7.74463,8.240986 -8.69621,10.414456 -9.44218,21.566596 -0.47033,7.0314 -1.12162,10.33272 -2.61627,13.26159 -1.13012,2.21454 -11.60616,14.04815 -24.24357,27.38527 -18.40722,19.42639 -21.9725,23.59677 -20.62764,24.12861 0.89423,0.35364 7.2361,0.65326 14.09303,0.66583 14.51063,0.0266 15.52001,-0.32958 24.03981,-8.48277 7.99015,-7.64636 11.73771,-9.30879 20.931,-9.28507 8.69733,0.0224 12.48647,1.54994 17.9889,7.25174 5.33012,5.52324 7.37178,11.02409 7.38197,19.88932 0.008,6.82816 -0.26181,8.04893 -2.75392,12.46715 -6.04098,10.71002 -18.32521,15.63612 -30.13138,12.08298 -6.088,-1.83221 -10.25432,-5.04793 -15.11241,-11.66432 -6.57415,-8.95354 -6.31384,-8.87851 -30.80382,-8.87851 h -20.92701 l -0.0704,38.29268 c -0.0387,21.06098 -0.36897,39.49456 -0.7339,40.96351 -1.3473,5.42331 -7.48587,8.76583 -10.16656,5.53581 z m 90.23543,-78.50483 c 8.39889,-3.50928 8.95159,-17.11048 0.90945,-22.37989 -1.66953,-1.09392 -3.49847,-1.3793 -6.80409,-1.06167 -6.45358,0.62011 -9.83865,4.11201 -10.38613,10.71394 -0.86361,10.41395 7.03666,16.59005 16.28077,12.72762 z M 524.07966,89.618632 c 2.13013,-1.13873 3.61833,-2.893556 4.747,-5.59748 4.09465,-9.80939 -4.54466,-19.892401 -14.49089,-16.912439 -5.19195,1.555546 -8.08023,5.460171 -8.08023,10.923553 0,5.42314 1.84441,9.204787 5.60893,11.500148 3.59355,2.191113 8.21669,2.223744 12.21519,0.08622 z"
       id="path81"
       transform="translate(131.71941,146.4803)" />
    <path
       style="opacity:0;fill:none;fill-opacity:0;stroke:#2514ed;stroke-width:0.336571;stroke-opacity:1"
       d="m 452.09491,283.37597 c -2.35016,-2.83177 -2.66403,-7.75637 -2.93778,-46.09426 -0.32321,-45.26321 -0.29725,-45.49767 5.90021,-53.29182 1.70905,-2.14937 14.10087,-15.23572 27.53736,-29.08078 13.4365,-13.84506 25.24815,-26.77653 26.24811,-28.73661 2.48871,-4.87829 3.17516,-9.99916 1.87035,-13.95278 -0.63779,-1.93251 -4.00566,-6.38604 -8.18315,-10.82102 -8.6926,-9.228419 -10.81058,-13.590608 -10.81571,-22.27608 -0.005,-8.161321 2.93284,-14.546699 9.34447,-20.311304 10.79419,-9.704907 26.34704,-8.369933 36.70495,3.150556 5.10611,5.679223 7.16078,11.627628 6.56785,19.014339 -0.55689,6.937684 -2.04746,9.776181 -9.04232,17.219343 -7.74463,8.240986 -8.69621,10.414456 -9.44218,21.566596 -0.47033,7.0314 -1.12162,10.33272 -2.61627,13.26159 -1.13012,2.21454 -11.60616,14.04815 -24.24357,27.38527 -18.40722,19.42639 -21.9725,23.59677 -20.62764,24.12861 0.89423,0.35364 7.2361,0.65326 14.09303,0.66583 14.51063,0.0266 15.52001,-0.32958 24.03981,-8.48277 7.99015,-7.64636 11.73771,-9.30879 20.931,-9.28507 8.69733,0.0224 12.48647,1.54994 17.9889,7.25174 5.33012,5.52324 7.37178,11.02409 7.38197,19.88932 0.008,6.82816 -0.26181,8.04893 -2.75392,12.46715 -6.04098,10.71002 -18.32521,15.63612 -30.13138,12.08298 -6.088,-1.83221 -10.25432,-5.04793 -15.11241,-11.66432 -6.57415,-8.95354 -6.31384,-8.87851 -30.80382,-8.87851 h -20.92701 l -0.0704,38.29268 c -0.0387,21.06098 -0.36897,39.49456 -0.7339,40.96351 -1.3473,5.42331 -7.48587,8.76583 -10.16656,5.53581 z m 90.23543,-78.50483 c 8.39889,-3.50928 8.95159,-17.11048 0.90945,-22.37989 -1.66953,-1.09392 -3.49847,-1.3793 -6.80409,-1.06167 -6.45358,0.62011 -9.83865,4.11201 -10.38613,10.71394 -0.86361,10.41395 7.03666,16.59005 16.28077,12.72762 z M 524.07966,89.618632 c 2.13013,-1.13873 3.61833,-2.893556 4.747,-5.59748 4.09465,-9.80939 -4.54466,-19.892401 -14.49089,-16.912439 -5.19195,1.555546 -8.08023,5.460171 -8.08023,10.923553 0,5.42314 1.84441,9.204787 5.60893,11.500148 3.59355,2.191113 8.21669,2.223744 12.21519,0.08622 z"
       id="path82"
       transform="translate(131.71941,146.4803)" />
    <path
       style="opacity:0;fill:none;fill-opacity:0;stroke:#2514ed;stroke-width:0.377953;stroke-opacity:1"
       d="m 295.57345,325.47303 c 17.44549,-1.58819 35.03445,-0.89052 52.54015,-0.89052 6.77242,0 21.80689,-0.21405 27.60584,0.89052 14.97335,2.85206 22.46984,6.0016 34.72994,13.35766 4.5887,2.75323 9.15751,5.58921 13.35766,8.90511 2.16696,1.71076 6.258,8.60752 7.12409,10.68614 3.30513,7.9323 -1.78125,8.54894 -8.90511,9.79562 -27.0022,4.72538 -54.56815,9.01236 -81.92702,4.45255 -4.56052,-0.76008 -11.41536,-5.16878 -7.12409,-10.68613 1.42334,-1.83001 3.42595,-3.14891 5.34307,-4.45256 5.51608,-3.75093 10.72623,-8.20874 16.91971,-10.68613 16.21165,-6.48466 32.90845,-11.87937 49.86862,-16.0292 3.69049,-0.90299 43.6331,-5.96142 53.43066,-6.23358 1.71777,-0.0477 20.59623,1.56794 23.15329,1.78103"
       id="path83" />
    <path
       style="opacity:0;fill:none;fill-opacity:0;stroke:#2514ed;stroke-width:0.377953;stroke-opacity:1"
       d="m 511.28235,242.74949 c 24.15977,-0.57668 80.74694,100.53376 104.87508,100.53376"
       id="path84" />
    <path
       style="opacity:0;fill:none;fill-opacity:0;stroke:#2514ed;stroke-width:0.377953;stroke-opacity:1"
       d="m 543.13553,395.8234 c 1.48418,-0.29684 3.06135,-0.29428 4.45255,-0.89051 0.7717,-0.33073 1.10936,-1.27727 1.78102,-1.78102 1.2648,-0.9486 3.67123,-1.10888 4.45256,-2.67154 0.13275,-0.2655 -0.16466,-0.64352 0,-0.89051 1.41935,-2.12902 2.06252,-1.126 2.67153,-3.56204 0.84781,-3.39122 -0.78446,-5.91544 -1.78102,-8.90511 -0.18774,-0.56321 0.41979,-1.36123 0,-1.78102 -0.2099,-0.2099 -0.68062,0.20989 -0.89051,0 -0.45816,-0.45816 0,-6.24193 0,-7.12409 0,-2.3747 -0.75095,-4.87126 0,-7.12409 0.41979,-1.25937 1.39957,-2.29054 1.78102,-3.56205 1.89621,-6.32069 0.89051,-13.96846 0.89051,-20.48175 0,-1.7528 -0.55158,-4.57882 0,-6.23358 1.48894,-4.46681 0.84112,-9.54866 1.78102,-14.24818 0.11794,-0.58967 0.34384,-14.59201 0.89051,-15.13868 0.2099,-0.2099 0.68062,0.20989 0.89052,0 1.89607,-1.89608 1.95931,-5.87794 2.67153,-8.0146 0.2655,-0.7965 1.27727,-1.10936 1.78102,-1.78103 0.64216,-0.8562 1.30239,-1.71426 1.78102,-2.67153 0.13275,-0.2655 -0.20989,-0.68061 0,-0.89051 0.85109,-0.85109 5.03261,0.40032 6.23358,0 2.51233,-0.83744 6.87606,-2.20934 8.90511,-3.56204 0.55227,-0.36818 0.35951,-1.38278 0.89051,-1.78103 4.38329,-3.28746 1.18916,1.67967 4.45256,-2.67153 4.47206,-5.96275 2.67153,-27.70713 2.67153,-35.62044 0,-4.21024 0.3025,-7.46059 0.89051,-11.57665 0.45713,-3.1999 -0.45713,-6.59571 0,-9.79562 1.00355,-7.02484 1.23113,-14.22369 1.78102,-21.37226 0.0802,-1.04302 0.27486,-10.07048 0.89052,-10.68614 1.85634,-1.85634 5.15673,-2.4852 7.12408,-4.45255 0.75679,-0.75679 1.13887,-1.81533 1.78103,-2.67153 5.0652,-6.75361 10.68613,-8.68044 10.68613,-18.70074 0,-1.18735 0.83958,-2.72246 0,-3.56204 -0.2099,-0.2099 -0.68062,0.20989 -0.89051,0 -1.62375,-1.62375 -0.0762,-1.64862 -1.78102,-2.67153 -1.13832,-0.683 -2.54224,-0.93118 -3.56205,-1.78103 -0.8222,-0.68516 -1.02423,-1.91474 -1.78102,-2.67153 -1.26992,-1.26992 -3.06149,-0.73772 -4.45256,-1.78102 -2.59057,-1.94294 1.1064,-1.91595 -2.67153,-2.67154 -0.87322,-0.17464 -1.84471,0.33073 -2.67153,0 -0.77953,-0.31181 -0.98453,-1.51552 -1.78102,-1.78102 -2.68548,-0.89516 -16.12698,0 -19.59125,0 -3.67874,0 -8.77956,-1.01605 -11.57664,1.78102 -2.42782,2.42782 -2.63284,27.79934 -1.78102,32.0584 0.0282,0.14109 1.54003,6.64211 1.78102,7.12409 0.13275,0.2655 0.68061,-0.20989 0.89051,0 0.2891,0.2891 3.16355,6.52636 3.56204,7.12409 0.16466,0.24698 0.68062,-0.20989 0.89051,0 0.46935,0.46934 0.42118,1.31168 0.89052,1.78102 1.08462,1.08463 1.98959,0.41714 2.67153,1.78102 0.13275,0.2655 -0.2099,0.68062 0,0.89052 1.1492,1.14919 1.78102,-0.55614 1.78102,2.67153 0,5.05207 1.05859,13.57585 0,17.81022 -0.45533,1.82131 -1.48822,3.48868 -1.78102,5.34307 -1.29683,8.21325 -1.03447,16.7222 -1.78102,24.93431 1.67818,2.33177 -1.39715,4.31421 -1.78103,6.23357 -0.88857,4.44288 -0.3351,9.91041 -1.78102,14.24818 -1.27052,3.81157 -2.77891,4.80941 -5.34306,8.0146 -0.76456,0.9557 -0.21162,2.54371 -0.89052,3.56205 -0.16465,0.24698 -0.62501,-0.13275 -0.89051,0 -0.10788,0.0539 -2.40958,3.03815 -2.67153,3.56204 -0.87982,1.75964 -3.47939,2.26449 -4.45255,3.56204 -0.73434,0.97912 -0.0251,2.69663 -0.89052,3.56205 -0.46934,0.46934 -1.31168,0.42117 -1.78102,0.89051 -0.71109,0.7111 0.26094,4.29933 0,5.34307 -0.68299,2.73196 -1.93058,5.29778 -2.67153,8.0146 -2.30482,1.82661 -0.38144,4.19729 -0.89051,6.23357 -1.03078,4.12311 -0.32581,-1.3683 -1.78102,4.45256 -0.48867,1.95465 0.39551,4.25598 0,6.23358 -0.13018,0.65085 -0.76034,1.13016 -0.89052,1.78102 -0.59181,2.95907 0,6.75786 0,9.79562 0,4.67038 -0.51274,9.63343 0,14.24818 0.10366,0.93294 0.70643,1.75108 0.89052,2.67153 1.28956,6.44783 1.78102,16.18903 1.78102,23.15329 0,3.47873 -0.2655,0.094 0.89051,3.56204 0.64076,1.92227 0.4575,9.31363 0,10.68614 -0.54734,1.64202 -1.78102,2.96837 -2.67153,4.45255 z"
       id="path85" />
    <path
       style="opacity:0;fill:none;fill-opacity:0;stroke:#2514ed;stroke-width:0.336571;stroke-opacity:1"
       d="m 411.80204,244.96383 c -1.72079,-3.89015 -1.77932,-5.61791 -1.53277,-45.24872 0.30441,-48.93231 -1.16456,-43.2114 15.5329,-60.49282 8.00409,-8.28403 11.80074,-12.94793 13.51171,-16.59812 l 2.37961,-5.07671 0.29962,-25.824819 c 0.38815,-33.455047 0.41487,-33.327008 -8.83039,-42.314997 -8.59413,-8.354992 -11.48428,-13.883138 -11.49703,-21.991023 -0.0168,-10.674984 5.96171,-20.4546659 15.04855,-24.6165665 6.20483,-2.84190015 15.99743,-2.62218122 21.95547,0.4926204 9.25462,4.8382173 14.96426,13.9450701 14.96426,23.8679131 0,7.439645 -2.06922,12.082718 -8.731,19.591243 -9.25114,10.42701 -8.9613,8.958088 -8.9613,45.416065 v 31.613144 l -2.42915,5.18488 c -1.76393,3.76505 -5.33819,8.17883 -13.05216,16.1179 -6.58367,6.77578 -11.52543,12.71382 -12.99625,15.61635 -3.45315,6.81445 -4.14863,16.19197 -3.84437,51.83566 0.25758,30.17401 0.22129,30.92856 -1.60596,33.39416 -1.35403,1.82707 -2.77289,2.59923 -5.14605,2.80051 -3.11921,0.26456 -3.3625,0.0837 -5.06569,-3.76667 z M 454.99258,35.997673 c 7.01444,-6.158755 4.16734,-19.311626 -4.53356,-20.943924 -7.91655,-1.485154 -13.65367,3.337707 -13.66001,11.483178 -0.006,7.936965 3.78529,12.200305 10.84996,12.200305 3.44617,0 4.79765,-0.504175 7.34361,-2.739559 z"
       id="path86"
       transform="translate(131.71941,146.4803)" />
    <path
       style="opacity:1;fill:#ff6b47;fill-opacity:1;stroke:#ff6b47;stroke-width:0.607382;stroke-dasharray:none;stroke-opacity:1"
       d="m 395.4294,371.04492 c -0.90971,-0.75542 -2.08952,-2.1288 -2.62191,-3.052 -2.54626,-4.41548 -2.59891,-5.47752 -2.66338,-53.70774 l -0.0626,-46.79722 -1.90121,-3.46953 c -1.39253,-2.5413 -3.69546,-5.02307 -8.60772,-9.27615 -10.45173,-9.04924 -14.17453,-15.1624 -14.89541,-24.45956 -0.69964,-9.02287 2.95434,-17.76836 10.10788,-24.1924 13.9916,-12.56475 33.72833,-12.32604 48.13458,0.58222 12.76203,11.435 14.80283,26.38593 5.34316,39.14443 -3.60578,4.86325 -7.5114,7.90513 -14.11971,10.99714 l -5.13427,2.40231 0.41613,46.86367 c 0.42968,48.39209 0.18324,55.64277 -2.04451,60.15524 -2.67652,5.42149 -8.42724,7.73579 -11.95107,4.80959 z m 11.73887,-130.71593 c 9.69891,-4.47225 9.64175,-19.43292 -0.0939,-24.54508 -3.85304,-2.02323 -7.81873,-2.42885 -12.30964,-1.25906 -7.03431,1.83228 -10.44892,6.03718 -10.43593,12.85121 0.0137,6.53607 3.73615,11.90711 9.65787,13.93036 3.55358,1.21413 9.36289,0.78336 13.1815,-0.97743 z"
       id="path199" />
    <path
       style="opacity:1;fill:#ff6b47;fill-opacity:1;stroke:#ff6b47;stroke-width:0.607382;stroke-dasharray:none;stroke-opacity:1"
       d="m 340.55785,322.65439 c -5.74215,-2.56389 -9.16386,-7.85955 -9.16386,-14.18252 0,-6.29335 2.89036,-10.27872 9.29487,-12.81627 11.0292,-4.36994 22.6526,2.92537 22.73534,14.26959 0.0464,6.3501 -3.38922,10.9227 -9.82839,13.08138 -4.81,1.61253 -8.88423,1.50246 -13.03796,-0.35218 z"
       id="path200" />
    <path
       style="opacity:1;fill:#ff6b47;fill-opacity:1;stroke:#ff6b47;stroke-width:0.607382;stroke-dasharray:none;stroke-opacity:1"
       d="m 445.87798,414.39257 c -2.07481,-0.36994 -4.71468,-2.9744 -5.94979,-5.87004 -1.03981,-2.43771 -1.1732,-6.45313 -1.48895,-44.82415 -0.37727,-45.84992 -0.18897,-51.49812 1.88191,-56.45038 2.25189,-5.38506 4.93711,-8.42826 17.89913,-20.28541 12.5304,-11.46229 14.96775,-14.10738 18.06847,-19.60882 4.10057,-7.27538 4.72017,-15.4458 3.78099,-49.86035 -0.51372,-18.82391 -0.77452,-22.52044 -1.76359,-24.99727 -0.95449,-2.39028 -2.73968,-4.30087 -10.04859,-10.75464 -7.42553,-6.55669 -9.26942,-8.54024 -11.20666,-12.05532 -3.00807,-5.45803 -3.95389,-9.69246 -3.53998,-15.8486 1.28359,-19.09123 20.85943,-32.48753 41.19564,-28.19138 6.4234,1.35701 11.63643,4.04925 16.75361,8.65236 7.96156,7.16175 11.54445,16.25131 10.09164,25.60177 -1.04914,6.75225 -3.90732,11.56713 -11.446,19.28164 -12.2028,12.48745 -11.51563,9.30656 -11.60411,53.71674 l -0.0714,35.75192 -1.67927,3.86373 c -2.5458,5.85761 -6.94314,10.8871 -18.77665,21.47608 -11.63929,10.41517 -16.42609,16.0627 -18.74982,22.12126 -2.15403,5.61613 -2.71048,18.20791 -2.5011,56.59733 0.18126,33.23547 0.16439,33.75462 -1.18171,36.33324 -0.75108,1.4388 -1.97056,3.09702 -2.70993,3.68495 -1.49587,1.18947 -4.96439,2.0201 -6.954,1.66534 z M 492.516,168.8186 c 3.44694,-0.92281 7.655,-4.69332 8.68494,-7.78182 3.67732,-11.02755 -4.76359,-21.04067 -15.96265,-18.9359 -5.13532,0.96516 -8.07978,2.92544 -10.18483,6.78061 -1.56489,2.86586 -1.73466,3.72892 -1.46407,7.44162 0.73632,10.10305 8.56281,15.27013 18.92661,12.49549 z"
       id="path201" />
    <path
       style="opacity:1;fill:#ff6b47;fill-opacity:1;stroke:#ff6b47;stroke-width:0.607382;stroke-dasharray:none;stroke-opacity:1"
       d="m 492.98236,453.86877 c -3.56966,-3.42396 -3.51067,-2.67228 -3.92951,-50.05848 -0.21339,-24.13981 -0.16638,-45.86406 0.10453,-48.27614 0.65172,-5.80483 2.42495,-10.23123 6.06306,-15.13462 2.82529,-3.80797 22.45335,-22.45125 53.19935,-50.53028 14.77829,-13.49635 16.34117,-15.17696 19.27433,-20.72612 1.86279,-3.52413 2.10313,-4.54702 2.09622,-8.92181 -0.0102,-6.59145 -1.18897,-8.48857 -10.29813,-16.57598 -3.96636,-3.52149 -8.15528,-7.67952 -9.30869,-9.24011 -7.42023,-10.03977 -7.8286,-22.95803 -1.07706,-34.07291 0.95843,-1.57785 3.71693,-4.57666 6.12998,-6.66404 12.31278,-10.65091 29.37421,-11.5529 43.81976,-2.31665 9.29488,5.94302 14.53562,14.94911 14.53562,24.97912 0,8.96228 -2.40024,13.4937 -11.70601,22.09954 -7.05207,6.52167 -9.96246,10.24776 -11.34475,14.52439 -0.51669,1.59865 -1.2031,7.18059 -1.52532,12.40428 -0.92941,15.06675 0.82189,12.82092 -39.33033,50.43617 -12.84615,12.0345 -23.43922,22.07184 -23.54011,22.30523 -0.34016,0.78689 13.74075,2.05199 22.56693,2.02753 9.35069,-0.026 14.33696,-0.91216 18.81508,-3.34415 1.24893,-0.67827 5.23308,-3.77355 8.85364,-6.87838 3.62059,-3.10483 8.14593,-6.45345 10.05636,-7.44139 10.11793,-5.23231 23.40441,-5.53136 33.21699,-0.74766 18.5982,9.06673 24.14756,33.47964 10.93475,48.10453 -9.51816,10.53541 -26.60012,14.09289 -40.27125,8.38689 -6.44981,-2.69201 -10.2871,-5.5739 -15.01583,-11.27727 -5.27926,-6.3674 -7.27892,-8.20265 -10.68573,-9.80731 -2.43778,-1.14824 -4.03008,-1.25616 -24.98717,-1.69361 -12.31091,-0.25697 -24.4917,-0.31119 -27.06846,-0.12049 l -4.685,0.34675 -0.18096,45.73186 -0.18096,45.73186 -1.62202,2.90582 c -3.03308,5.43382 -9.30455,7.30102 -12.90924,3.84343 z m 118.33861,-91.68663 c 5.75913,-2.66772 8.93432,-9.27478 7.47797,-15.56046 -1.72558,-7.44781 -7.85146,-11.88232 -15.55025,-11.25681 -6.0013,0.48759 -10.07507,2.85072 -12.76643,7.40558 -1.784,3.0193 -1.67886,10.53086 0.19127,13.6613 1.71815,2.87607 4.36834,5.1741 7.34712,6.37077 3.1442,1.26311 9.91609,0.94725 13.30032,-0.62038 z M 583.78656,229.63706 c 4.34706,-1.1567 8.56922,-4.70347 9.61422,-8.07624 1.7838,-5.75727 -0.0784,-12.03314 -4.70402,-15.85355 -3.52639,-2.91251 -6.65427,-3.85297 -11.50413,-3.45893 -4.79809,0.38982 -8.72311,2.3221 -11.23893,5.53284 -1.6098,2.05444 -2.00008,3.20137 -2.20725,6.48688 -0.49206,7.80235 3.61081,13.79648 10.76447,15.72649 2.80167,0.75588 5.47928,0.65268 9.27564,-0.35749 z"
       id="path203" />
  </g>
</svg>
