<?xml version="1.0" encoding="UTF-8" standalone="no"?>
<!-- Created with Inkscape (http://www.inkscape.org/) -->

<svg
   version="1.1"
   id="svg1"
   width="512"
   height="511"
   viewBox="0 0 512 511"
   sodipodi:docname="alerta.svg"
   inkscape:version="1.3.2 (091e20e, 2023-11-25, custom)"
   xmlns:inkscape="http://www.inkscape.org/namespaces/inkscape"
   xmlns:sodipodi="http://sodipodi.sourceforge.net/DTD/sodipodi-0.dtd"
   xmlns="http://www.w3.org/2000/svg"
   xmlns:svg="http://www.w3.org/2000/svg">
  <defs
     id="defs1" />
  <sodipodi:namedview
     id="namedview1"
     pagecolor="#ffffff"
     bordercolor="#000000"
     borderopacity="0.25"
     inkscape:showpageshadow="2"
     inkscape:pageopacity="0.0"
     inkscape:pagecheckerboard="0"
     inkscape:deskcolor="#d1d1d1"
     inkscape:zoom="1.5401174"
     inkscape:cx="255.82465"
     inkscape:cy="255.5"
     inkscape:window-width="1920"
     inkscape:window-height="1001"
     inkscape:window-x="-9"
     inkscape:window-y="-9"
     inkscape:window-maximized="1"
     inkscape:current-layer="g1" />
  <g
     inkscape:groupmode="layer"
     inkscape:label="Image"
     id="g1">
    <path
       style="fill:#2c3e50;fill-opacity:1"
       d="M 35,474.43978 C 21.711881,472.30042 9.3369461,463.05436 3.2952671,450.75127 c -2.49395,-5.0786 -2.831561,-6.97266 -3.131957,-17.57094 -0.259874,-9.16861 0.03271,-12.846 1.282426,-16.11833 C 2.3362491,414.73022 51.566182,328.72566 110.84559,225.94074 228.68577,21.616958 223.1737,30.494716 236.10595,24.195823 c 11.78986,-5.742472 25.99824,-5.742472 37.7881,0 12.10186,5.894437 13.41441,7.841601 61.92317,91.863257 24.45019,42.35 44.93318,78.67457 45.51776,80.72126 2.13238,7.46581 -3.93031,13.82764 -11.77498,12.35597 -1.91034,-0.35838 -4.28034,-1.6897 -5.26667,-2.95849 C 363.307,204.90903 342.7,169.50239 318.5,127.49639 289.27481,76.767746 273.14577,49.748251 270.46705,47.031201 c -8.95687,-9.085012 -24.63212,-8.3171 -32.62519,1.59827 C 235.53965,51.48535 36.196734,395.78962 23.816177,418.29375 c -3.238849,5.88726 -3.989313,8.25737 -4.029466,12.72587 -0.08188,9.11217 3.676239,15.94491 11.213289,20.38719 4.5,2.65227 4.5,2.65227 224,2.65227 219.5,0 219.5,0 224,-2.65227 10.19,-6.00591 14.3384,-19.3836 9.15906,-29.53595 -1.10406,-2.16413 -20.97618,-36.75711 -44.16027,-76.87328 -23.18409,-40.11618 -42.3908,-74.33135 -42.68157,-76.03371 -1.57244,-9.20617 10.02604,-15.27322 16.54551,-8.65479 2.79561,2.83804 85.5751,145.60555 89.90379,155.0546 5.3621,11.70486 3.81801,28.3495 -3.70834,39.97426 -6.80947,10.51751 -17.14764,17.11064 -30.05818,19.16948 -8.14544,1.29895 -430.916362,1.23382 -439,-0.0676 z M 243.03451,408.3567 c -7.47874,-2.87104 -15.04496,-10.53687 -17.88072,-18.11612 -7.95299,-21.25627 7.36948,-43.6815 29.84621,-43.6815 17.64621,0 32,14.35379 32,32 0,22.53098 -22.74276,37.94489 -43.96549,29.79762 z m 18.55005,-20.46241 c 5.61593,-3.63273 6.35208,-12.24473 1.46447,-17.13234 -4.92331,-4.92331 -11.12584,-4.97222 -15.97211,-0.12595 -4.82002,4.82002 -4.79749,11.04866 0.0575,15.90367 4.11958,4.11957 9.40914,4.61544 14.45013,1.35462 z M 243.03451,320.3567 C 235.55577,317.48566 227.98955,309.81983 225.15379,302.24058 223.05229,296.62382 223,295.24765 223,245.55908 c 0,-49.54991 0.0576,-51.07906 2.13501,-56.6313 6.41968,-17.15814 26.79018,-25.38745 43.36499,-17.51866 7.50741,3.5641 13.57356,10.05788 16.36499,17.51866 2.07736,5.55224 2.13501,7.08139 2.13501,56.6313 0,49.68857 -0.0523,51.06474 -2.15379,56.6815 -6.05137,16.17374 -25.22792,24.48253 -41.8117,18.11612 z m 18.55005,-20.46241 c 4.89313,-3.16519 4.91544,-3.41381 4.91544,-54.78151 0,-54.00075 0.25487,-52.0786 -7.32778,-55.26287 -3.1844,-1.33725 -4.19155,-1.35937 -7.58163,-0.16647 -2.15018,0.7566 -4.85018,2.64557 -6,4.19771 -2.03685,2.74953 -2.0985,3.98329 -2.3982,48 -0.16918,24.84786 -0.0303,47.08215 0.30851,49.40952 0.68272,4.68901 4.97295,9.85155 8.75758,10.53823 2.93473,0.53247 6.7289,-0.2546 9.32608,-1.93461 z m 127.62801,-53.84182 c -7.63405,-3.31684 -7.34722,-14.30349 0.47027,-18.01313 2.79787,-1.32767 4.01438,-1.40526 6.93263,-0.44215 3.63721,1.20038 7.37379,5.88912 7.38079,9.26155 0.007,3.40563 -3.12526,7.85629 -6.53056,9.27912 -4.09431,1.71071 -4.11984,1.71045 -8.25313,-0.0854 z"
       id="path1" />
  </g>
</svg>
