<?xml version="1.0" encoding="UTF-8" standalone="no"?>
<!-- Created with Inkscape (http://www.inkscape.org/) -->

<svg
   version="1.1"
   id="svg1"
   width="382.99179"
   height="224.12364"
   viewBox="0 0 382.99179 224.12364"
   xmlns="http://www.w3.org/2000/svg"
   xmlns:svg="http://www.w3.org/2000/svg">
  <defs
     id="defs1" />
  <g
     id="g1"
     transform="translate(-58.100735,-138.54164)">
    <path
       style="fill:#2c3e50;fill-opacity:1;stroke:none"
       d="m 131.60229,192.59085 v -16 c 34.84634,30.27618 68.11218,62.57904 102,93.92575 8.30589,7.68308 16.51869,15.4979 25,22.98746 4.16119,3.67462 9.08939,8.19427 15,8.23169 5.90805,0.0374 10.83234,-4.4596 15,-8.10953 8.84833,-7.74912 17.36322,-15.90311 26,-23.88626 34.71301,-32.08594 68.43967,-66.18164 105,-96.14911 v 153 c -15.63828,-15.63834 -30.99359,-31.63681 -47,-46.89822 -5.23306,-4.98951 -14.49588,-13.64536 -21.67581,-6.69187 -7.17636,6.95001 0.82803,16.27793 5.81851,21.59009 15.12866,16.10388 31.23361,31.37625 46.8573,47 h -257 c 14.11989,-14.11987 29.72662,-27.65433 42.51205,-42.99969 4.65928,-5.59214 8.99141,-16.81769 -0.92608,-20.01932 -7.19589,-2.32303 -13.93805,4.66916 -18.58597,9.11444 -13.43539,12.8497 -25.85097,26.81875 -40,38.90457 -7.59461,-7.31256 -18.6861,-4.82608 -18.68851,7.02789 -0.002,9.43494 6.22713,18.15335 13.76258,23.318 8.69989,5.96273 18.82956,5.64813 28.92593,5.65353 l 44,5.8e-4 h 154 l 43,-6e-5 c 8.60922,-7.6e-4 17.84772,0.76095 25.98834,-2.57068 17.22394,-7.04901 19.98545,-23.96887 20.00968,-40.42926 0.0579,-39.3331 0.002,-78.66684 0.002,-118 0,-16.3699 3.44385,-37.29297 -7.92438,-50.77072 -9.98937,-11.84302 -24.76222,-12.2074 -39.07564,-12.22736 l -34,-0.002 h -155 l -44,1.2e-4 c -9.58659,0.001 -19.81444,-0.63504 -28.99361,2.6355 -11.86554,4.22769 -19.71151,14.935 -20.74652,27.36438 -0.5066,6.08377 1.66863,16.39844 -3.09641,21.16348 -3.23635,3.23636 -8.97532,2.78632 -13.16752,2.82346 -9.2425,0.0819 -21.94203,-2.2171 -30.580484,1.57657 -6.103333,2.68033 -8.014511,10.32095 -3.210354,15.21908 4.723926,4.81632 12.616078,4.19293 18.794928,4.21298 l 33.99997,0.004 c 6.05882,-0.001 12.97807,0.75467 18.79044,-1.28443 11.52612,-4.04358 7.64604,-15.13952 -0.79044,-19.71539 m 269,-32 -36,34.20432 -56,51.72094 -23,21.06781 -12,6.68454 -12,-6.83178 -23,-21.14814 -92,-85.69769 h 254 M 87.73542,235.88885 c -9.68539,3.27304 -10.72051,15.0709 -0.93459,19.06232 4.59864,1.87567 9.93035,1.61127 14.80147,1.63291 9.74107,0.0433 22.58834,2.06585 31.75705,-1.76078 9.49613,-3.96325 8.46256,-15.54287 -0.92268,-18.81143 -8.14054,-2.83508 -18.34339,-1.42511 -26.83438,-1.42041 -5.8087,0.003 -12.27952,-0.59076 -17.86687,1.29739 m 20.1334,43.27298 c -7.45944,3.11298 -8.96628,12.66077 -1.73678,17.05835 6.41139,3.89997 20.39647,3.69428 27.20372,0.86737 7.46824,-3.10138 8.95496,-12.68328 1.73678,-17.05831 -6.49712,-3.93796 -20.31665,-3.74149 -27.20372,-0.86741 z"
       id="path1" />
  </g>
</svg>
