<?xml version="1.0" encoding="UTF-8" standalone="no"?>
<!-- Created with Inkscape (http://www.inkscape.org/) -->

<svg
   version="1.1"
   id="svg1"
   width="512.82935"
   height="482"
   viewBox="0 0 512.82935 482"
   xmlns="http://www.w3.org/2000/svg"
   xmlns:svg="http://www.w3.org/2000/svg">
  <defs
     id="defs1" />
  <g
     id="g1"
     transform="translate(-0.8864674,-13.048285)">
    <path
       style="fill:#2c3e50;fill-opacity:1;stroke:none"
       d="m 152.30115,13.048285 v 65 L 43.301143,107.04829 c 4.208145,20.59741 10.942364,40.79779 16.714283,61 2.105614,7.36984 7.392002,18.21152 3.878033,25.72552 -2.813893,6.01703 -9.573353,10.24723 -14.593735,14.27341 l -30.996428,24.80112 c -6.164671,4.94153 -14.6219675,10.13486 -16.3884751,18.40875 -1.87411692,8.77792 -0.6136773,18.85288 -0.6136773,27.7912 v 52 164 H 513.30115 v -164 -52 c 0,-8.93835 1.26038,-19.01324 -0.61368,-27.7912 -1.76642,-8.27386 -10.22384,-13.46728 -16.38846,-18.40875 l -30.99646,-24.80112 c -5.02035,-4.02618 -11.7799,-8.25644 -14.59372,-14.27341 -3.51391,-7.51403 1.77237,-18.35568 3.87803,-25.72552 5.76989,-20.19495 12.49655,-40.41382 16.71429,-61 l -109,-29.000005 v -65 h -210 m 180,30 v 199.000005 53 c 0,7.12753 1.80637,17.53079 -1.83652,23.97363 -4.67798,8.27353 -20.04501,12.68979 -28.16348,16.76691 l -28,13.99628 c -5.22678,2.60949 -10.96375,6.01599 -17,5.82461 -5.67656,-0.17996 -11.04045,-3.35547 -16,-5.81656 l -26,-12.99487 c -6.99063,-3.4953 -14.03967,-6.89557 -20.96283,-10.5231 -4.06007,-2.12735 -8.64264,-4.44321 -10.59862,-8.85501 -3.19322,-7.20252 -1.43855,-17.66852 -1.43855,-25.37189 v -55 -194.000005 h 150 m -90,45 c 0,8.985165 2.3826,22.194185 -1.83624,30.392065 -3.14769,6.11645 -10.72052,9.3136 -15.39765,14.1571 -10.7565,11.13913 -15.04753,27.47596 -11.09219,42.45084 3.65829,13.85025 13.89584,25.42993 27.32637,30.50275 10.19484,3.85067 28.58549,2.67096 29.70271,17.5075 0.59299,7.87473 -6.84283,15.14521 -14.66479,14.6496 -4.42948,-0.28067 -7.7758,-2.93667 -11.03821,-5.65985 l -27,14 c 3.14931,4.87512 6.5715,9.23163 11.09134,12.92889 3.73245,3.05317 8.71254,5.47074 11.07216,9.86774 4.28937,7.99292 1.8365,21.37854 1.8365,30.20337 h 30 c 0,-8.82483 -2.45288,-22.21042 1.83649,-30.20337 3.05798,-5.6983 10.2937,-8.72674 14.78616,-13.19791 8.65887,-8.61782 13.38733,-20.39608 13.13431,-32.59872 -0.37116,-17.90027 -11.92108,-34.61288 -28.75711,-40.97363 -7.96222,-3.00815 -17.77262,-2.16559 -24.43094,-8.06012 -8.08222,-7.15509 -6.00466,-19.65528 4.5263,-23.19599 6.6998,-2.25259 12.32602,2.59317 18.90479,2.22525 8.37659,-0.46847 17.12296,-7.68978 24,-11.99551 -3.29654,-4.6366 -6.7605,-8.88803 -11.20297,-12.48972 -3.79672,-3.07812 -8.64392,-5.61621 -10.96079,-10.11822 -4.21881,-8.19785 -1.83624,-21.40696 -1.83624,-30.392065 h -30 m -90,21.000005 v 196 c -8.12233,-3.75476 -19.45779,-7.39844 -24.97423,-14.81042 -3.61642,-4.85914 -4.81864,-11.47556 -6.45394,-17.18976 l -9.28848,-32.99982 c -10.53796,-37.0433 -23.552545,-74.26791 -31.283357,-112 l 72.000007,-19 m 282,19 -31.8515,114 -9.00644,31.99982 -7.45355,17.97406 -23.68851,13.02612 v -196 l 72,19 m -358.000007,98 14,48 -46,-23 32,-25 m 394.000007,24 c -13.08231,10.33698 -30.52301,17.93451 -46,24 l 14,-48 32,24 m -338,78 c -10.50552,18.22061 -28.08729,33.50024 -42.180839,49 -19.002335,20.89835 -37.062141,44.94049 -58.819168,63 v -161 l 36,16.75 65.000007,32.25 m 351,-49 v 161 c -21.75705,-18.05957 -39.8168,-42.10162 -58.81915,-63 -14.09351,-15.49976 -31.67539,-30.77936 -42.18085,-49 l 65,-32.25 36,-16.75 m -19,186 H 50.301143 l 82.090337,-91 19.09107,-20.88269 11.99162,-7.45151 22.82698,9.5842 47,23.5 24,9.69781 24,-9.69781 47,-23.5 22.827,-9.5842 11.9916,7.45151 19.09107,20.88269 z"
       id="path1" />
  </g>
</svg>
