<?xml version="1.0" encoding="UTF-8" standalone="no"?>
<!-- Created with Inkscape (http://www.inkscape.org/) -->

<svg
   version="1.1"
   id="svg1"
   width="510.53455"
   height="428.92563"
   viewBox="0 0 510.53455 428.92563"
   xmlns="http://www.w3.org/2000/svg"
   xmlns:svg="http://www.w3.org/2000/svg">
  <defs
     id="defs1" />
  <g
     id="g1"
     transform="translate(-1.0299845,-36.479267)">
    <path
       style="fill:#2c3e50;fill-opacity:1;stroke:none"
       d="m 51.656926,38.989635 c -8.277313,5.004578 1.734138,11.273346 7.087955,11.832337 25.454466,2.657684 52.358619,0.27478 77.953979,0.274597 7.461,-6.1e-5 21.63513,2.48288 27.33186,-3.572632 2.88311,-3.064697 1.54274,-7.219848 -2.03833,-8.930878 -5.03,-2.40332 -11.88321,-1.493804 -17.29356,-1.496093 l -65.999973,-3.97e-4 c -7.722641,0 -20.16655,-2.263885 -27.041931,1.893066 M 295.69886,51.096569 v 1 c -36.552,18.526215 -71.44244,40.918239 -107,61.286321 -9.68761,5.54925 -19.34399,11.15515 -29,16.75927 -6.06219,3.51834 -12.20081,7.67496 -19,9.61847 -7.92183,2.26441 -16.84952,1.33591 -25,1.33594 H 71.698857 c -18.3307,0 -36.66843,-0.14902 -54.99839,0.0131 -4.838101,0.0428 -15.6704825,-0.3081 -15.6704825,6.95355 0,3.72504 3.680279,5.66477 6.843391,6.37265 7.5398565,1.68737 16.1416585,0.6607 23.8254815,0.6607 H 135.69886 v 90 l -66.99995,0.002 c -5.238205,0.007 -19.789314,-1.3909 -19.789314,6.99841 0,8.38931 14.551117,6.99109 19.789314,6.99841 l 66.99995,10e-4 v 90 H 29.698857 c -7.373783,0 -16.584013,-1.38593 -23.6268525,1.16339 -3.927774,1.42175 -6.88631296,5.72977 -3.628468,9.44324 2.701972,3.07989 7.491425,3.21298 11.2652375,3.33337 8.649835,0.27594 17.336355,0.06 25.990083,0.06 h 68.000003 c 11.15723,0 24.33983,-1.85349 35,1.98444 15.72754,5.66223 30.5258,16.86261 45,25.15655 30.05745,17.22336 60.01782,34.61878 90,51.97278 9.98828,5.78134 19.96161,11.60178 30,17.29532 7.04144,3.99374 13.83597,7.86316 22,4.78915 16.0119,-6.02893 31.20355,-17.34186 46,-25.89035 l 87,-50.19412 c 10.32739,-5.9776 20.70886,-11.86704 30.99701,-17.9118 5.49063,-3.22599 12.19134,-6.51774 15.09875,-12.52643 4.79963,-9.91925 1.90424,-25.8946 1.90424,-36.67554 v -84 -68 c -3.1e-4,-12.34802 1.33807,-23.37753 -10.10986,-31.00134 -30.5596,-20.35129 -64.07773,-37.23706 -95.89014,-55.574711 l -51,-29.429443 c -8.89545,-5.105805 -18.03009,-11.912293 -28,-14.687744 -12.03491,-3.350312 -26.60165,-1.306763 -39,-1.306763 -17.33307,0 -34.66672,-0.03915 -51.99976,0.003 -5.03973,0.01227 -15.31985,-1.21402 -17.72114,4.762481 -3.4189,8.509186 11.00792,9.151825 15.722,9.212342 20.99283,0.269461 42.00427,0.02218 62.9989,0.02218 m 194,95.999998 -34,21.00439 -18,7.96454 -17,-6.83203 -31,-17.86764 -78,-45.06025 -41,-24.209008 35,-20.430145 18,-7.568604 17,7.272492 32,18.457 117,67.269255 m -67,40 c -9.02368,5.34402 -22.12057,16.45123 -33,16.17413 -6.11411,-0.15573 -11.89117,-4.26956 -17,-7.22326 l -31,-17.90491 c -24.96512,-14.49847 -49.99948,-28.8793 -75,-43.31665 -14.37508,-8.30133 -29.59808,-15.90579 -43,-25.72931 l 20.00021,-11.668759 13.99979,-4.90067 17,7.616759 31,17.90671 75,43.31522 42,25.73074 m -47,26 v 1 l -34,19.84647 -18,7.86816 -17,-7.00296 -31,-17.86404 -118,-67.84763 v -2 l 34,-19.62534 18,-7.5881 17,7.07617 32,18.50992 117,67.62735 m -225,-53 117,67.42395 31.99786,18.53131 14.69995,10.89884 2.30164,18.14605 5.5e-4,35.99985 v 137 l -43,-24.00549 -76,-43.88074 -30.99785,-17.90613 -14.69996,-10.9747 -2.30109,-17.23312 -0.001,-33.99982 v -90 l 1,-50 m 346,0 v 136 l -2.4e-4,36.99982 -1.83628,18.07989 -14.16754,10.80527 -30.99594,17.90597 -119,68.20905 v -136 l 2.4e-4,-36.99982 1.83628,-18.03943 15.16562,-11.3807 34.99786,-19.58005 6e-5,46 c 6.1e-4,6.65927 -1.27713,15.40863 1.97284,21.49942 3.32065,6.2233 9.88034,4.33072 15.03058,1.76196 9.57849,-4.77743 18.75668,-10.55706 27.99103,-15.96142 4.8887,-2.86109 10.68292,-5.74729 13.63461,-10.8223 3.41861,-5.87781 2.36926,-13.95337 2.3707,-20.47766 l 3e-4,-36.99994 c 8.9e-4,-5.77844 -0.96124,-12.90375 1.43842,-18.32593 2.53799,-5.73474 9.45932,-8.73852 14.56552,-11.71887 12.2233,-7.1344 24.39941,-14.49658 36.99594,-20.95526 m -66,39 -1.2e-4,42 -2.30207,20.23285 -10.72009,8.61255 -20.97772,11.1546 1.2e-4,-42.99991 2.30207,-19.86029 10.72009,-8.28708 z"
       id="path1" />
  </g>
</svg>
