<?xml version="1.0" encoding="UTF-8" standalone="no"?>
<!-- Created with Inkscape (http://www.inkscape.org/) -->

<svg
   version="1.1"
   id="svg1"
   width="512"
   height="512.29211"
   viewBox="0 0 512 512.29211"
   xmlns="http://www.w3.org/2000/svg"
   xmlns:svg="http://www.w3.org/2000/svg">
  <defs
     id="defs1" />
  <g
     id="g1"
     transform="translate(-0.65057158,-1.6595671)">
    <path
       style="fill:#2c3e50;fill-opacity:1;stroke:none"
       d="m 392.02258,3.5227295 c -10.78943,4.650664 -7.37201,23.0751045 -7.37201,32.4289845 v 98.000006 247 65 c 0,8.31769 -2.22198,20.94449 2.43857,28.29828 4.37567,6.9043 14.53506,5.69247 21.56143,5.70041 l 48,0.001 c 7.28122,-1.8e-4 16.66797,1.40506 23.46942,-1.69989 10.23181,-4.67102 6.53058,-24.26508 6.53058,-33.30011 v -99 V 98.951407 33.951404 c 0,-7.811 2.21881,-20.21579 -2.43857,-27.0055535 -4.55133,-6.63513096 -15.64425,-4.991424 -22.56143,-4.994079 l -47,-3.66e-4 c -7.07349,4.62e-4 -15.97662,-1.29564996 -22.62799,1.571324 M 469.65057,18.951714 V 462.95172 h -68 V 18.951714 h 68 M 151.40658,106.85596 c -8.28222,4.62072 -5.75581,19.25192 -5.75599,27.09576 l -2e-5,80 v 185 l 2e-5,51 c 1.6e-4,7.22116 -1.49798,16.8656 1.97288,23.48361 4.05579,7.73328 14.69098,6.50681 22.02712,6.51508 l 48.99998,0.001 c 7.13022,-3.4e-4 16.80577,1.49185 23.28444,-2.10535 8.29901,-4.60788 5.71545,-19.03653 5.71556,-26.89462 v -80 -187 -51 c -9e-5,-6.79651 1.52194,-16.19186 -1.83652,-22.38632 -3.9714,-7.32501 -15.23402,-5.61136 -22.16348,-5.61344 l -50,-2.4e-4 c -6.74747,1.8e-4 -16.12085,-1.5119 -22.24399,1.90424 m 11.24399,356.09576 v -342 l 48.99976,5.5e-4 c 5.03434,0.003 13.93853,-1.4242 17.69805,2.83597 4.18545,4.7428 2.30198,15.34353 2.30217,21.16348 l 2e-5,55 v 189 l -2e-5,50 c -1.9e-4,5.8764 1.67804,15.44189 -1.8365,20.56143 -3.41833,4.9794 -13.01765,3.43506 -18.16372,3.43802 l -48.99976,5.5e-4 M 271.31182,208.85596 c -7.51577,4.12588 -5.65948,15.96771 -5.66107,23.09576 l -1.8e-4,67 v 131 c 0,10.66385 -0.10623,21.33398 0.019,31.99713 0.0562,4.78424 -0.14016,10.68909 3.552,14.31732 4.13559,4.064 11.0857,3.63312 16.42966,3.67322 12.33186,0.0926 24.66713,0.0123 36.99934,0.0123 7.99966,0 16.00021,0.0344 23.99979,-0.008 4.73266,-0.025 10.16098,0.30203 14.48379,-1.96509 7.98596,-4.18829 6.51096,-15.49234 6.51575,-23.0271 l 6.7e-4,-65.99981 v -132 c 0,-10.66138 0.1694,-21.33887 -0.0359,-31.99841 -0.0962,-4.99427 -0.2258,-10.85315 -4.18399,-14.49823 -4.36413,-4.01892 -11.28384,-3.47544 -16.78033,-3.49787 -11.99957,-0.0489 -24.00015,-0.005 -35.99978,-0.005 l -24.9996,0.005 c -4.63651,0.0189 -10.12979,-0.41205 -14.33915,1.89875 m 79.33875,15.09625 v 239 l -47.99988,-2.4e-4 c -5.19049,-0.002 -13.92291,1.4404 -18.1636,-2.30195 -4.08652,-3.60632 -2.83032,-11.86428 -2.83542,-16.69836 l -0.001,-42.99945 v -177 h 69 M 33.96248,310.52273 c -8.101458,3.4415 -7.295927,13.09394 -7.309756,20.42911 l -0.0022,57.99988 v 59 c 6e-6,7.75208 -2.000418,19.21222 1.969,26.2106 4.078874,7.19135 15.07884,5.78086 22.031034,5.78815 l 46.999962,10e-4 c 7.35116,-9e-5 16.7182,1.40738 23.62802,-1.57104 7.985,-3.44184 7.34392,-13.15406 7.36754,-20.42908 0.0628,-19.33289 0.004,-38.66687 0.004,-57.99988 v -58 c -1e-5,-7.97589 1.87859,-19.16742 -1.97291,-26.45691 -4.05227,-7.66946 -14.72465,-6.52875 -22.02711,-6.54092 l -46.999986,-0.002 c -7.391121,6e-5 -16.729164,-1.38513 -23.688091,1.57101 m 77.688097,15.42899 v 137 H 43.650571 v -137 h 67.999999 m -110.99999843,171 v 17 H 512.65057 v -17 z"
       id="path1" />
  </g>
</svg>
