<?xml version="1.0" encoding="UTF-8" standalone="no"?>
<!-- Created with Inkscape (http://www.inkscape.org/) -->

<svg
   version="1.1"
   id="svg1"
   width="466.22607"
   height="487.00949"
   viewBox="0 0 466.22607 487.00949"
   xmlns="http://www.w3.org/2000/svg"
   xmlns:svg="http://www.w3.org/2000/svg">
  <defs
     id="defs1" />
  <g
     id="g1"
     transform="translate(-17.81867,-12.751421)">
    <path
       style="fill:#080808;stroke:none"
       d="m 78.096569,378.30114 c 21.528468,12.74976 43.278821,25.15335 65.000001,37.57162 9.52296,5.4444 23.58685,10.71329 30.56145,19.39463 3.42767,4.26645 3.37951,9.83359 3.42549,15.03515 0.0858,9.70594 -2.19924,22.60053 1.5164,31.74979 2.50163,6.15994 9.02097,9.62204 14.50215,12.74335 3.43157,1.95413 7.05927,4.05221 10.99451,4.76419 9.91202,1.79333 28.22884,-8.73731 31.05313,-18.54798 2.70343,-9.39083 0.87427,-21.01678 0.95993,-30.70938 0.0498,-5.63168 0.0994,-11.44088 4.0923,-15.86242 6.30861,-6.98575 16.85988,-11.24073 24.89464,-15.93094 l 49,-28.7504 c 6.16544,-3.59619 12.99509,-6.84891 18.52029,-11.40509 2.02921,-1.67331 4.75089,-4.2966 4.20881,-7.23923 -0.43958,-2.3861 -3.00116,-2.93695 -5.06336,-2.68423 -4.86975,0.5968 -9.5209,3.93582 -13.66586,6.33426 -19.33573,11.18835 -38.70398,22.32034 -57.99988,33.57763 -16.63623,9.70563 -33.29236,19.37677 -50,28.95905 l 1.83652,-24.27826 18.16372,-13.51111 43.99976,-25.50207 133,-77.0813 66,-38.62726 c -6e-5,7.25726 1.51523,16.80914 -1.83652,23.48956 -3.22232,6.42252 -11.28061,9.85266 -17.16403,13.32831 -13.28909,7.85053 -26.63519,15.61386 -39.99945,23.33582 -7.63553,4.41183 -15.47183,8.67663 -22.83115,13.53918 -2.73928,1.80994 -6.83032,4.40076 -7.17096,8.05084 -0.51339,5.50159 7.37381,3.33149 10.0401,2.20606 10.43808,-4.40589 20.10279,-11.38007 29.96201,-16.94977 0.041,4.52161 -0.21048,9.45068 1.83652,13.62094 3.92111,7.98837 19.2142,17.22916 28.16348,16.63443 5.05243,-0.33575 9.72998,-3.34106 13.99026,-5.82156 6.849,-3.98773 13.55753,-8.00806 14.66446,-16.50553 2.69257,-20.66946 0.34601,-43.08563 0.34528,-63.92828 -2.7e-4,-7.64966 1.78891,-18.28705 -4.10535,-24.25815 -5.0776,-5.1438 -12.68298,-8.33499 -18.89465,-11.88473 l -34,-19.57004 c -6.83057,-3.90973 -16.57169,-7.71518 -20.69781,-14.80942 -2.66755,-4.58642 -2.2815,-10.36441 -2.29813,-15.47797 l -0.006,-26.99908 c -0.009,-4.97733 0.52414,-10.77734 -1.83438,-15.34528 -3.09353,-5.99151 -10.61654,-9.28082 -16.16458,-12.52767 l -24.99835,-14.66321 c -5.02017,-2.9495 -10.85245,-5.68851 -14.8952,-9.97486 -9.89975,-10.496237 1.65716,-28.568837 -8.2107,-39.102684 -5.9431,-6.343964 -15.46416,-10.334656 -22.89485,-14.676056 l -43,-25.245178 c -7.43338,-4.35791 -16.97754,-12.233338 -26,-12.010773 -10.22491,0.252228 -21.4812,10.010407 -30,15.009857 -16.02325,9.403595 -32.03671,18.828247 -48,28.333161 -8.00958,4.769104 -17.31606,8.937072 -24.33876,15.124939 -8.2547,7.273407 -5.66124,21.196437 -5.66124,31.077144 v 53 c 0,7.81183 1.69009,18.1521 -1.43855,25.49106 -1.96463,4.60849 -6.52497,7.34967 -10.59862,9.8887 -8.02062,4.99909 -18.59447,9.13367 -24.79726,16.45209 -10.744398,12.67685 2.45251,33.5181 -7.604139,46.26126 -4.321045,5.47537 -11.694237,8.78696 -17.561554,12.30585 l -34.999825,20.80636 c -5.934333,3.54633 -13.182678,6.80774 -17.894683,11.98117 -5.788563,6.35541 -4.105071,16.89548 -4.105347,24.81351 l -2.3e-5,43 c 2e-6,7.39648 -0.930433,15.57739 0.613678,22.84912 1.488495,7.00983 7.676914,10.67749 13.399391,14.1164 4.525845,2.71978 9.567524,6.05505 14.986931,6.41265 9.053123,0.59732 25.022362,-8.82019 29.095779,-16.88202 2.219506,-4.3927 1.871834,-9.71643 1.904221,-14.49615 M 327.09657,69.301144 c -7.18228,5.976229 -19.18732,15.815519 -29,15.705479 -8.57849,-0.0962 -17.86166,-7.75852 -25,-11.91593 -18.2825,-10.647856 -36.36201,-21.773314 -55,-31.789549 v -2 c 8.18907,-4.73056 19.20244,-14.143738 29,-14.143738 8.63913,0 17.8382,7.676697 25,11.852265 18.35864,10.703704 36.90109,21.152649 55,32.291473 m -40,21.999999 v 2 c -3.76929,1.87344 -7.69699,4.0318 -12.0228,4.05264 -8.70111,0.0419 -17.77359,-7.47671 -24.9772,-11.67627 -18.64453,-10.86938 -38.4644,-20.770778 -56,-33.376369 3.72636,-2.086151 7.63699,-4.524231 12.0228,-4.756531 8.93066,-0.473053 18.636,7.680268 25.9772,11.964691 18.28389,10.670716 36.45172,21.584809 55,31.791839 m -23,13.999997 v 1 c -8.47672,4.84171 -19.96564,14.29034 -30,14.54944 -8.62657,0.22275 -17.87938,-7.52289 -25,-11.67499 -18.69757,-10.902737 -37.43979,-21.738857 -56,-32.874447 7.86343,-5.581359 20.035,-15.207396 30,-15.439208 8.60588,-0.200195 17.89182,7.586761 25,11.730618 18.67506,10.887 37.46283,21.58686 56,32.708587 m 69,-26.999997 v 66.999997 c 0,8.62964 2.29086,21.40814 -1.83652,29.27826 -4.46942,8.52228 -18.18478,13.5563 -26.16348,18.14206 -21.8718,12.57077 -43.37027,26.41986 -66,37.57968 v -68 c 0,-8.42914 -2.37248,-21.41299 1.83652,-29.03125 4.72694,-8.55569 19.75232,-13.84726 28.16348,-17.96875 4.9e-4,6.66901 -1.78793,17.23285 2.43857,22.92023 2.38653,3.21142 6.25421,2.79602 9.61209,1.54919 6.21631,-2.3082 14.23608,-6.42175 18.5108,-11.6095 6.70282,-8.13446 1.29587,-20.16827 4.54389,-29.426047 3.47943,-9.91742 20.15683,-16.1218 28.89465,-20.43387 m -184,7 c 17.59688,11.24381 35.96283,21.356507 54,31.874447 7.38319,4.30533 18.97072,8.63492 23.69781,16.08627 4.71122,7.4263 2.30219,20.61838 2.30219,29.03928 v 68 c -19.15146,-8.27042 -37.00244,-20.45914 -55,-30.95908 -7.63654,-4.45523 -18.86205,-8.73892 -24.16348,-16.07486 -4.83931,-6.69647 -2.8365,-18.17507 -2.83652,-25.96606 v -45 c 2e-5,-8.99518 -0.86461,-18.354737 2,-26.999997 m 144,16.999997 c -0.003,6.40695 1.08203,14.4707 -2.81372,20.00751 -2.51685,3.57702 -6.52777,5.78064 -10.18628,7.99249 7.9e-4,-6.89597 -1.63449,-16.84164 3.40311,-22.38754 2.54449,-2.80124 6.18972,-4.19458 9.59689,-5.61246 m 51,13 47,27 -48,28 1,-55 m 52,38 v 66 c 0,8.71146 2.26077,21.43204 -1.83652,29.40256 -4.40707,8.57315 -18.17886,13.587 -26.16348,18.16543 -21.8642,12.53699 -43.36374,26.33686 -66,37.43201 v -68 c 0,-8.55756 -2.36124,-21.63312 2.30219,-29.23285 5.27493,-8.59628 19.74069,-14.06766 28.69781,-17.76715 1.5e-4,6.49167 -1.91925,17.3667 2.30219,22.84088 2.18484,2.83322 5.69445,2.57007 8.75778,1.5246 6.3587,-2.17014 14.25445,-6.46973 18.77447,-11.50556 7.61377,-8.48266 1.33866,-20.60321 5.6041,-30.13012 4.02304,-8.98554 19.27731,-14.52811 27.56146,-18.7298 m -39,23 -2.8223,19.20343 -11.1777,8.79657 c 8.2e-4,-7.17905 -1.73666,-17.60135 4.06992,-23.03839 2.76278,-2.58698 6.42627,-3.77289 9.93008,-4.96161 m -133,63 v 1 c -8.38107,4.96176 -19.93964,14.48953 -30,14.64615 -8.61627,0.13415 -17.87604,-7.69562 -25,-11.85416 -18.50417,-10.80163 -39.36267,-20.2333 -56,-33.79199 8.87949,-4.49951 19.8027,-13.73779 30,-14.08862 8.98277,-0.30905 18.59715,7.72888 26,12.0477 18.32623,10.69149 36.63287,21.42025 55,32.04092 m 68,-27 v 68 c 0,8.47742 2.35101,21.39954 -1.83652,29.07971 -4.38537,8.04309 -17.57849,12.81873 -25.16348,17.28021 -21.6651,12.74344 -43.24228,26.95261 -66,37.64008 v -68 c 0,-8.63831 -2.32162,-21.59113 2.30219,-29.29776 5.21929,-8.69919 18.88775,-14.43161 27.69781,-18.70224 5e-5,6.44547 -2.1396,18.27411 2.30219,23.57013 2.24876,2.68121 5.84892,2.0481 8.75776,0.98343 6.23029,-2.28037 14.25536,-6.39877 18.50151,-11.61759 6.73877,-8.28231 0.85135,-20.12481 4.87708,-29.27832 4.09494,-9.31088 20.00958,-15.26489 28.56146,-19.65765 m 117,1 63,37 c -62.95313,39.41589 -128.72757,74.88251 -193,112.11414 l -50,28.93173 c -6.60112,3.83282 -14.94267,10.58423 -23,9.9216 -6.41898,-0.52789 -12.58141,-5.14636 -18,-8.27536 -10.98911,-6.34574 -21.98222,-12.6818 -33,-18.97785 C 114.55449,350.84783 74.747189,325.41149 33.096569,304.30114 l 29,-17.85733 34.999998,-19.14267 3.7e-4,34 c 0.002,6.00626 -0.7665,12.9978 1.63086,18.65994 3.327393,7.85874 13.449093,11.99726 20.368953,16.04483 16.96457,9.92298 34.02066,19.68866 50.99982,29.58667 6.8376,3.98603 15.6627,11.2887 24,10.74875 6.76926,-0.43838 13.3271,-5.52432 19,-8.83249 11.30707,-6.59375 22.6441,-13.13086 34,-19.63998 36.70181,-21.03726 73.35336,-42.16525 110,-63.29849 l 30.9996,-17.99994 c 5.67441,-3.28498 12.49259,-6.47919 16.49704,-11.86441 3.53351,-4.7519 3.45603,-10.75049 3.49362,-16.40506 0.0555,-8.34397 -0.39962,-16.74424 1.00974,-24.99982 m -220,151 c -19.83266,-8.56464 -38.35023,-21.33777 -57,-32.2067 -6.93082,-4.03921 -18.21542,-8.13815 -22.16346,-15.56045 -4.15211,-7.80591 -1.83654,-20.65289 -1.83654,-29.23285 v -67 c 19.79758,8.8497 38.19414,21.51373 57,32.28632 6.95685,3.9851 18.18568,8.17028 22.16348,15.56634 4.16649,7.74686 1.83652,20.6167 1.83652,29.14734 v 67 m 63,-128 c -0.003,6.43768 1.07535,14.52057 -2.81372,20.09512 -2.50388,3.58902 -6.49806,5.75064 -10.18628,7.90488 7.8e-4,-6.88031 -1.62256,-16.71921 3.40311,-22.25223 2.55888,-2.8172 6.18274,-4.27661 9.59689,-5.74777 m 224,62 c 0,11.0426 3.17767,28.57324 -3.1629,38.22437 -2.76883,4.21447 -7.51093,6.51092 -11.8371,8.77563 l 0.007,-23.9986 2.28973,-14.18725 12.70327,-8.81415 m -25,14 v 33 c -4.04108,-2.01202 -8.55356,-3.99329 -11.57516,-7.47412 -9.57657,-11.03204 2.34994,-20.90491 11.57516,-25.52588 m -249,127 -47,-26.46539 -80.000001,-46.24829 -30.995941,-17.86023 -14.167519,-11.10025 -1.83654,-24.32584 c 15.944008,7.11737 30.910503,16.78546 46,25.53436 23.283388,13.4997 46.624841,26.91053 70.000001,40.2507 l 35.99995,20.64359 c 6.09812,3.48547 13.89052,6.69171 18.5615,12.09369 5.75692,6.65787 3.43855,19.31116 3.43855,27.47766 M 368.8719,348.43847 c -4.75501,1.07211 -10.19275,4.72089 -13.05737,8.65521 -2.63712,3.62183 -1.04282,7.16504 3.62069,6.37293 4.90345,-0.83292 10.98066,-4.36283 14.00821,-8.32575 3.12992,-4.09686 0.22971,-7.78497 -4.57153,-6.70239 m -326.775331,48.86267 -11.706425,-8.20795 -2.286174,-13.79675 -0.0074,-23.9953 11.706425,7.98322 2.286174,14.0194 0.0074,23.99738 m 11,0 v -32 c 9.510353,4.40417 21.240753,14.73874 10.916893,25.39447 -2.99427,3.09052 -7.069622,4.85156 -10.916893,6.60553 m 149.000001,91 -12.70287,-8.86267 -2.28407,-13.14139 -0.0131,-23.99594 12.70287,8.07819 2.28973,13.92587 0.007,23.99594 m 27,-46 -1.00732,22.99774 -2.28981,14.13959 -12.70287,8.86267 0.0131,-24.9917 2.28627,-12.76517 z"
       id="path1" />
  </g>
</svg>
