<?xml version="1.0" encoding="UTF-8" standalone="no"?>
<!-- Created with Inkscape (http://www.inkscape.org/) -->

<svg
   version="1.1"
   id="svg1"
   width="422.90146"
   height="512.49567"
   viewBox="0 0 422.90146 512.49567"
   xmlns="http://www.w3.org/2000/svg"
   xmlns:svg="http://www.w3.org/2000/svg">
  <defs
     id="defs1" />
  <g
     id="g1"
     transform="translate(-40.534412,0.08325873)">
    <path
       style="fill:#2c3e50;fill-opacity:1;stroke:none"
       d="m 73.096569,446 c 0,8.03552 -2.802383,23.13589 3.503342,29.31445 6.323089,6.19562 20.426936,3.68549 28.496659,3.68555 0,8.47675 -3.23998,26.14484 5.70171,31.09576 6.38353,3.53455 16.26864,1.90415 23.29829,1.90424 h 52 192 55 c 7.33951,-3e-5 17.70685,1.73242 24.38632,-1.90424 6.85449,-3.73193 5.60565,-13.53543 5.61258,-20.09585 L 463.09647,443 c -2.1e-4,-6.31689 1.50629,-15.44733 -1.82678,-21.13046 -2.69269,-4.59122 -8.51105,-3.83887 -10.67392,0.76651 -2.97821,6.34146 -1.49924,15.54556 -1.4993,22.36395 v 20 32 h -329 v -18 h 215 61 c 8.66046,0 20.43866,1.95901 28.51697,-1.69989 9.21722,-4.1748 6.48294,-19.16144 6.48303,-27.30011 v -82 c 0,-7.37421 0.9559,-15.58929 -0.66052,-22.82739 -0.72452,-3.2442 -2.66858,-6.81537 -6.38932,-7.06018 -3.67346,-0.2417 -6.01141,3.00741 -6.95651,6.15936 -2.10418,7.01755 -0.99362,15.48321 -0.99365,22.72821 v 97 H 88.096569 v -18 h 223.000001 59 c 7.09592,-6e-5 17.90927,1.87262 24.11331,-2.30219 3.57556,-2.40606 4.43537,-6.69866 4.7219,-10.72018 0.54217,-7.60916 0.16479,-15.35266 0.16479,-22.97763 v -99 c 0,-9.05457 1.0806,-18.93628 -0.5304,-27.87433 -0.678,-3.76178 -2.87576,-8.26312 -7.38641,-7.94845 -4.5213,0.31539 -6.23636,5.08767 -6.73801,8.90466 -1.19564,9.09738 -0.34518,18.7554 -0.34518,27.91812 V 431 H 55.096569 V 15 H 384.09657 v 181 c 0,13.97369 -0.42792,28.02509 0.0714,41.99017 0.16641,4.65393 0.8671,12.51776 7.01178,12.95758 5.383,0.38529 7.20236,-5.78408 7.64215,-9.99377 1.26567,-12.11505 0.27467,-24.77985 0.27467,-36.95398 V 47 h 17 v 204 c 0,15.98926 -0.29578,32.01074 0.0396,47.99649 0.104,4.95792 0.33096,14.36392 7.13156,14.88651 6.24774,0.48004 7.4856,-7.33255 7.71906,-11.90003 0.71201,-13.93121 0.10978,-28.03442 0.10978,-41.98297 V 80.999995 h 18 V 200 v 81 88 c 1.5e-4,6.28229 -0.91092,13.5513 0.88507,19.64499 0.91226,3.09521 3.31021,6.03357 6.87323,5.5282 7.71811,-1.09473 6.23258,-13.79526 6.24011,-19.17337 L 463.09698,311 V 138 l -3e-5,-46.000005 c -3.7e-4,-6.36499 1.45206,-15.38357 -1.90421,-21.11331 -4.74142,-8.09451 -22.22442,-4.88669 -30.09576,-4.88669 0,-8.222773 2.94028,-24.000727 -3.50336,-30.314448 C 421.27056,29.48996 407.16668,32.000031 399.09698,32 c 0,-8.042664 2.77518,-23.3013 -4.21988,-29.095764 C 390.92626,-0.36852996 384.9035,0.04171704 380.09603,0.00973504 369.76385,-0.05895496 359.42938,3.50445e-5 349.09698,3.50445e-5 h -124 -136.000001 c -10.657654,0 -21.341225,-0.2146610045 -31.995941,0.0452299955 -4.866093,0.118683 -10.695481,0.373779 -13.701862,4.84146096 -4.569714,6.790924 -2.302193,19.324921 -2.302197,27.113312 v 67.999992 257 l 3.8e-5,63 c 3.63e-4,6.58237 -1.990059,18.15436 3.503304,23.09576 6.219402,5.59452 20.743576,2.90424 28.496658,2.90424 M 83.98325,40.904236 c -6.131081,3.591339 -4.876679,13.097137 -4.885086,19.095947 L 79.096564,113 l 3.8e-5,53 c 3.66e-4,6.63071 -1.563354,16.27084 2.370842,22.06573 4.891106,7.20438 18.194098,4.9339 25.629116,4.93424 l 57,3e-5 c 7.57231,-3e-5 18.38844,1.81781 25.24399,-2.03766 6.49499,-3.65271 5.72822,-12.59469 5.75108,-18.96271 0.0634,-17.6661 0.005,-35.3334 0.005,-52.99963 l -3e-5,-53.000005 c -3.7e-4,-6.686213 1.54436,-16.302821 -2.37085,-22.167659 C 187.90792,36.615417 174.48826,39.000122 167.09663,39 h -58 c -7.35539,0 -18.51102,-1.963104 -25.113315,1.904236 m 136.999925,0.397949 c -3.87761,2.609314 -4.55664,7.395783 -4.77684,11.710877 -0.47868,9.380432 -3.51626,28.814113 7.23545,33.415923 8.94798,3.8298 22.10452,1.57101 31.65472,1.57101 h 69 c 8.77112,0 24.61594,2.92942 31.89465,-2.96899 3.03962,-2.4632 3.71787,-6.37329 3.96131,-10.0625 0.53466,-8.10199 0.6741,-16.820556 -0.0706,-24.908507 -0.4003,-4.347596 -1.81436,-8.345826 -6.22794,-9.954651 C 344.55986,36.790344 331.66447,39 322.09657,39 h -68 c -6.99753,0 -14.00005,-0.0752 -20.99699,0.02237 -4.00673,0.05588 -8.64859,-0.05368 -12.11634,2.279816 M 180.09657,53 V 178 H 94.096569 V 53 h 86.000001 m 166,19.999995 h -115 V 53 h 80 c 6.9942,0 13.99332,-0.07578 20.98694,0.02237 3.38751,0.04755 7.64114,-0.199157 10.57452,1.814057 4.98206,3.419249 3.43375,12.994048 3.43854,18.163568 M 222.69644,110.62823 c -7.37293,3.45173 -4.11951,11.20456 2.58922,12.71125 C 235.53831,125.64209 247.62892,124 258.09657,124 h 65 c 7.64978,0 15.33835,0.21838 22.98325,-0.0794 3.49285,-0.13604 7.72891,-0.31454 10.41919,-2.8768 3.39636,-3.23474 1.6921,-8.09628 -2.04398,-10.14737 -5.95108,-3.2671 -14.82092,-1.89603 -21.35846,-1.8964 l -77,-3e-5 c -9.81052,0 -24.32574,-2.62003 -33.40013,1.62823 m -1.53505,33.66089 c -9.21845,6.65439 4.72465,11.48413 9.94667,11.65088 31.26378,0.99839 62.70784,0.06 93.98851,0.06 7.3064,0 14.67358,0.26532 21.97202,-0.10986 3.41946,-0.17578 7.62673,-0.50162 9.9797,-3.35633 2.98844,-3.62564 0.49118,-8.00244 -3.41098,-9.43145 C 347.21653,140.75098 338.8228,142.00003 332.09657,142 h -80 c -8.39255,0 -23.77878,-2.87677 -30.93518,2.28912 m 0.70828,35.60962 c -8.41954,4.8367 0.25736,11.9766 6.27455,12.75605 10.7249,1.38925 22.14952,0.34521 32.95235,0.34521 h 62 c 7.64056,0 15.35626,0.30081 22.98685,-0.13055 3.60629,-0.20386 7.81808,-0.64011 10.46475,-3.40513 3.17911,-3.32128 1.83215,-8.08309 -2.13525,-9.9645 -6.06141,-2.87439 -14.7945,-1.49967 -21.31635,-1.49982 h -79 c -9.10716,0 -24.0746,-2.78442 -32.2269,1.89874 M 85.607449,215.56802 c -6.904931,3.12763 -4.763848,10.69187 1.74018,12.54627 8.725858,2.48788 19.743661,0.96383 28.747831,0.86899 4.03727,-0.0426 8.69664,0.14428 12.34224,-1.88114 6.99346,-3.88543 2.60893,-10.98236 -3.50998,-12.38699 -7.8329,-1.79807 -16.84056,-0.73666 -24.83096,-0.71072 -4.685532,0.0152 -10.111672,-0.41929 -14.489311,1.56359 m 76.139971,0.33216 c -9.07903,5.04043 -0.10709,12.29373 6.38685,12.88525 15.75847,1.4354 32.141,0.21457 47.9623,0.21457 h 92 c 11.33197,0 22.66675,0.0735 33.99841,-0.0111 4.54883,-0.034 10.82331,0.46524 14.40403,-2.94507 4.55307,-4.33639 0.13574,-9.81588 -4.62256,-11.15841 C 341.93055,212.07922 329.36219,214 319.09657,214 h -112 l -29.99989,0.003 c -4.90352,0.0119 -10.89928,-0.57333 -15.34926,1.89719 M 84.08865,252.8945 c -6.093102,3.65848 -2.302346,10.17069 3.255615,11.44504 9.257922,2.12274 20.292715,0.74347 29.749295,0.64377 4.10165,-0.0433 9.29615,0.26672 12.76606,-2.3375 5.90637,-4.4328 0.31237,-10.24112 -4.93085,-11.16321 -8.9046,-1.56597 -18.81218,-0.53289 -27.829743,-0.47286 -4.175584,0.0278 -9.281801,-0.35398 -13.010377,1.88476 m 76.9398,0 c -4.51071,2.68991 -3.80068,8.44745 0.75724,10.60764 6.06022,2.87225 14.7908,1.49768 21.31088,1.49786 h 128 c 10.66418,0 21.3334,0.0958 31.99701,-0.0167 4.2688,-0.045 10.03619,0.32718 13.38983,-2.85968 4.51413,-4.28965 0.0785,-9.38346 -4.63367,-10.4632 C 341.64705,249.32254 329.52241,251 319.09657,251 h -113 l -29.9996,0.003 c -4.74826,0.0115 -10.81066,-0.64761 -15.06852,1.89151 M 84.803028,288.8979 c -6.937668,3.88736 -2.663818,10.97912 3.463829,12.38696 8.98781,2.06494 19.649693,0.8364 28.826693,0.68729 3.95829,-0.0643 8.649,0.0347 12.04495,-2.33329 6.13158,-4.27557 1.45152,-10.71304 -4.21222,-11.97799 -8.43133,-1.88309 -18.23116,-0.70828 -26.828893,-0.65116 -4.310838,0.0287 -9.399324,-0.29431 -13.294359,1.88819 m 76.944392,8.5e-4 c -9.78627,5.42267 0.96344,12.47986 7.37176,12.93647 15.85057,1.12941 32.088,0.16478 47.97739,0.16478 h 92 c 10.99805,0 22.00143,0.0991 32.9989,-0.0167 4.69754,-0.0495 10.9126,0.25912 14.4527,-3.45075 4.32367,-4.531 0.28628,-9.65097 -4.69702,-10.83127 C 341.38228,285.22174 328.8101,287 318.09657,287 h -111 l -29.99989,0.003 c -4.90499,0.0119 -10.89656,-0.57156 -15.34926,1.89575 m -76.139971,35.67014 c -6.885148,3.1232 -4.802964,10.77737 1.74018,12.5997 8.744078,2.43533 19.734711,0.89801 28.747831,0.81836 4.02519,-0.0356 8.70143,0.19708 12.34224,-1.81714 7.01316,-3.87991 2.6116,-11.04846 -3.50998,-12.4545 -7.83229,-1.79898 -16.84099,-0.73678 -24.83096,-0.71084 -4.684609,0.0152 -10.113282,-0.4206 -14.489311,1.56442 m 76.988851,-0.002 c -7.86213,3.52884 -4.53156,11.59845 2.66807,12.91724 15.11829,2.76892 32.47954,0.51587 47.8322,0.51587 h 95 c 11.33215,0 22.6665,0.0656 33.99841,-0.01 4.52753,-0.0301 10.83271,0.51855 14.40403,-2.87549 4.57193,-4.34497 0.11798,-9.80384 -4.62256,-11.16877 C 341.65272,321.00244 328.66075,323 318.09657,323 h -109 l -29.99997,10e-4 c -5.28186,0.006 -11.55434,-0.65469 -16.5003,1.56528 m -78.595976,37.7189 c -6.203911,4.25632 -1.359016,10.24103 4.265099,11.23178 9.202274,1.62104 19.507577,0.56433 28.828137,0.46604 4.07497,-0.043 9.31237,0.28457 12.74321,-2.3411 5.58904,-4.2774 0.0202,-9.97571 -4.88974,-11.02936 -9.0408,-1.94012 -19.63742,-0.71881 -28.848293,-0.59051 -3.968507,0.0553 -8.67621,-0.0847 -12.098413,2.26315 m 77.028126,-0.38867 c -4.50039,2.69125 -3.82418,8.51938 0.75724,10.67011 6.04603,2.83828 14.81177,1.43298 21.31088,1.43307 h 128 c 10.66486,0 21.3334,0.0812 31.99786,-0.0131 4.26911,-0.0378 10.09104,0.39111 13.45374,-2.79559 4.54349,-4.30573 0.01,-9.45197 -4.69702,-10.53064 C 341.64811,358.32242 329.52284,360 319.09657,360 h -113 l -29.9996,0.003 c -4.7462,0.0115 -10.8147,-0.64996 -15.06852,1.89383 z"
       id="path1" />
  </g>
</svg>
