<?xml version="1.0" encoding="UTF-8" standalone="no"?>
<!-- Created with Inkscape (http://www.inkscape.org/) -->

<svg
   version="1.1"
   id="svg1"
   width="513.16028"
   height="512.89526"
   viewBox="0 0 513.16028 512.89526"
   xmlns="http://www.w3.org/2000/svg"
   xmlns:svg="http://www.w3.org/2000/svg">
  <defs
     id="defs1" />
  <g
     id="g1"
     transform="translate(0.21617521,-0.51239491)">
    <path
       style="fill:#2c3e50;fill-opacity:1;stroke:none"
       d="m 329.65058,436.65057 c 1.95969,0.38107 3.92377,0.68414 5.74158,1.56165 13.90286,6.71121 0.79245,19.29757 -0.75434,28.43835 -0.7051,4.16684 1.23536,7.79541 3.71296,10.99841 4.92742,6.37003 14.15612,17.56162 23.2998,16.01438 8.11353,-1.37293 14.68829,-10.53458 23.46027,-5.89984 10.02548,5.29702 4.23959,21.27648 16.74582,24.18533 7.91305,1.84051 26.01922,3.23553 31.36212,-4.24506 4.63055,-6.48321 2.24087,-16.66174 10.82263,-20.37961 11.15213,-4.83148 19.20926,11.1016 30.60885,4.61704 7.43949,-4.23187 20.54776,-15.64795 18.97971,-25.29065 -1.28491,-7.90158 -9.90506,-14.03339 -6.27246,-22.63138 3.66251,-8.66873 13.78882,-6.28308 20.29874,-10.88736 6.92108,-4.89514 5.12762,-17.13687 4.94903,-24.47259 -0.0698,-2.86579 -0.13482,-5.87467 -1.12027,-8.60193 -4.02551,-11.14063 -20.56964,-5.21073 -24.52292,-16.68384 -2.87259,-8.33673 5.20511,-14.13037 6.61075,-21.7229 1.19196,-6.43826 -3.94253,-11.72229 -8.03497,-15.97192 -4.73428,-4.91608 -11.25269,-12.38654 -18.8873,-11.10852 -7.61633,1.2749 -13.40207,9.46246 -21.72336,6.66107 -9.85611,-3.31806 -6.69171,-14.83173 -12.26233,-21.41516 -5.56454,-6.57627 -21.28128,-4.82492 -28.93518,-3.82019 -15.59482,2.04712 -8.13281,27.43689 -25.09869,25.77966 -1.70127,-0.1662 -3.31848,-0.72275 -4.87091,-1.41443 -2.84964,-1.26959 -5.4736,-3.06049 -8.10953,-4.71051 v -1 c 18.96582,-18.47049 29.98087,-44.9357 33,-71 9.90002,-2.93146 11.77203,-11.57043 1,-15 -0.0389,-10.48959 -0.15826,-21.79919 -3.56851,-31.84274 -1.42752,-4.2042 -5.3056,-9.80808 -10.48285,-7.12619 -5.54495,2.87234 -3.58768,11.14795 -2.78214,15.97046 2.54599,15.24212 2.57895,30.85446 -0.7098,45.99847 -3.45685,15.91809 -10.28348,30.96945 -20.07407,44 -11.31381,15.05786 -25.45468,27.48926 -34.90103,44 -4.99228,8.72577 -8.57138,18.03259 -10.03748,28 -0.95675,6.50467 0.0793,15.21646 -2.87698,21.16763 -3.31372,6.67084 -14.48294,4.82944 -20.56714,4.83237 -0.86975,-19.27393 -2.85855,-38.70242 -1.66623,-58 0.3941,-6.37842 -0.4967,-15.46173 3.22949,-20.98224 3.42777,-5.07831 11.11014,-5.70965 16.43717,-7.62323 9.13611,-3.2818 17.75058,-8.94073 21.24508,-18.41409 5.49967,-14.90921 -4.29507,-32.02915 -21.24563,-30.07056 -11.58142,1.33817 -20.54914,9.78555 -25.20304,20.09372 -2.43554,5.39465 -3.31774,13.0968 -8.12371,17.0271 -5.81943,4.75909 -15.8415,2.65503 -22.67313,1.9693 -2.11842,-12.92377 -6.33743,-27.29715 -18.13457,-34.63403 -14.31164,-8.9007 -34.77551,-3.36579 -35.35302,15.63629 -0.42063,13.83981 10.34149,23.82757 22.48742,28.29898 5.22893,1.92499 13.1005,2.37396 16.7322,7.08774 3.48756,4.52673 3.06202,12.20215 3.19685,17.6112 0.34683,13.91495 0.60301,28.10492 -0.26318,41.99958 -0.31652,5.07717 0.41067,13.26144 -3.50023,17.16369 -4.34871,4.33911 -13.59418,2.83386 -19.16547,2.83655 -0.29471,-15.97876 -1.28419,-32.38788 -8.30649,-47 -11.72532,-24.39832 -33.98897,-40.6293 -47.07309,-64 -24.33679,-43.47009 -16.45366,-99.03015 17.59647,-134.97351 11.37242,-12.00473 24.6436,-21.36957 39.78311,-28.00574 18.55695,-8.13415 39.92108,-10.95376 60,-8.13971 24.81998,3.47852 47.91699,14.87406 65.85229,32.37879 6.73673,6.57498 11.98539,14.10751 17.73472,21.49475 2.41192,3.09903 5.75546,7.03299 10.15936,6.47879 7.40249,-0.93158 4.93002,-9.94898 2.64508,-14.23743 -6.2833,-11.79272 -16.17536,-21.51248 -25.39145,-30.99594 2.32034,-0.0853 4.68665,-0.0876 6.96262,-0.61301 5.44921,-1.25787 9.30072,-7.11233 3.97274,-11.36361 -6.8562,-5.47068 -15.91201,-1.55823 -19.93536,4.97662 -17.72089,-10.46341 -35.48914,-19.12064 -56,-22.42133 -7.96268,-1.28137 -16.0166,-1.87332 -23.98917,-3.07959 -4.74426,-0.7178 -9.71318,-1.63562 -12.96078,-5.50146 -1.72791,-2.05682 -2.84668,-4.59052 -3.85787,-7.05426 -1.66833,-4.064879 -3.2722,-8.515685 -2.19749,-12.943358 2.23552,-9.210052 12.68674,-15.294312 13.34982,-25 0.32196,-4.71283 -2.73535,-8.647095 -5.66583,-12 -5.42314,-6.204834 -11.47832,-12.253235 -17.67868,-17.681274 -2.8602,-2.503937 -6.10837,-5.14206 -10,-5.687104 -13.90157,-1.94696 -20.85898,17.46991 -35.99289,12.503418 C 184.48325,38.759337 177.86028,35.925047 175.58982,29.352873 172.5873,20.66168 175.09907,5.5783368 164.36207,1.8161298 159.77352,0.20831079 154.43459,0.65887279 149.65053,0.65215879 c -6.93701,-0.0098 -14.05484,-0.431641 -20.96615,0.239746 -4.2026,0.40826401 -8.17826,1.71875001 -10.58221,5.41992191 -5.20263,8.0100713 -1.70342,19.4836123 -7.56759,27.1253363 -2.20954,2.879303 -5.68601,4.453949 -8.94209,5.832458 -3.727575,1.578125 -7.824285,3.181305 -11.941945,2.46463 -9.549503,-1.662109 -15.391689,-12.004181 -24.999973,-13.49411 -4.668728,-0.723968 -8.600224,1.963593 -12,4.832245 -7.765003,6.551971 -17.276142,14.831512 -22.565655,23.578186 -6.576496,10.874817 6.038597,19.941742 10.311718,29 2.585232,5.480225 1.122334,10.628876 -1.127018,15.941928 -1.378502,3.25607 -2.953132,6.73254 -5.832462,8.9421 -7.641705,5.86414 -19.115278,2.36496 -27.1253288,7.5676 -3.701171,2.40396 -5.011647,6.37955 -5.41991599,10.58215 -1.002257,10.31699 -2.15142501,24.74301 0.64534199,34.775 4.369985,15.67508 27.8796488,5.61804 35.4934578,18.61035 3.314999,5.65677 6.426323,13.13504 3.813019,19.58087 -4.398212,10.84842 -18.49457,19.68024 -9.379314,32 5.583736,7.54672 13.177803,14.50024 20.186161,20.71631 3.327949,2.95172 7.269905,6.20593 11.999996,5.93695 8.820175,-0.50165 15.16346,-9.67505 23.000003,-12.84393 6.59929,-2.66858 14.760895,0.73227 20.421605,4.36077 11.14214,7.14209 3.80351,23.6316 12.29642,32.25889 6.2747,6.37399 17.10315,0.74353 23.42224,7.00955 3.33749,3.30948 4.82933,8.41491 6.81239,12.56552 2.82289,5.90839 6.10851,11.58493 9.79538,16.99594 9.74558,14.30298 22.8837,25.75775 32.69982,40 10.62176,15.41119 14.25181,31.50214 14.51779,50 0.20402,14.189 -2.09346,30.18567 1.65867,43.99969 2.01763,7.42817 6.42643,13.92115 12.52034,18.61402 3.94858,3.04074 8.79961,4.96329 12.25534,8.62237 5.50873,5.83286 8.05928,13.23386 14.75536,18.19611 12.31435,9.12579 30.94368,8.621 42.6591,-1.27005 5.49491,-4.63919 8.2128,-10.97046 12.83652,-16.26007 4.46384,-5.10672 11.13156,-7.6496 15.983,-12.38364 9.59155,-9.35949 10.34537,-20.91083 10.36603,-33.51843 m -91,-318 -35,14 c -5.7852,-28.97729 -29.72635,-53.981626 -61,-52.55792 -13.98837,0.63681 -27.61031,6.561554 -37.8028,16.095428 -3.56091,3.330811 -8.235335,7.982632 -8.434975,13.206512 -0.24382,6.37973 6.337755,6.81357 10.450905,3.96814 8.86432,-6.1322 14.93269,-13.647522 25.78689,-16.713806 24.4559,-6.908722 53.00715,9.776736 55.6462,35.992336 1.12212,11.14676 -8.56903,17.73795 -15.43621,25.02411 -6.62418,7.02832 -11.88141,17.74768 -19.89934,23.14755 -13.20477,8.89307 -33.82967,-3.08761 -42.35993,-13.30832 -7.17643,-8.5986 -7.18251,-17.96102 -11.526535,-27.5675 -1.36422,-3.01691 -4.26522,-6.23349 -7.9386,-5.02893 -3.59226,1.17795 -4.76953,5.43637 -4.94094,8.79309 -0.36438,7.13559 2.33271,14.65967 5.46746,20.94925 10.495325,21.05786 31.003095,32.72375 53.987875,34.00006 -6.41295,25.48917 -10.55003,47.70325 -6,74 h -10 c -0.74568,-9.30133 -0.45003,-23.84363 -7.91086,-30.57993 -4.61909,-4.17053 -11.49202,-5.53213 -17.08734,-7.94088 -5.044085,-2.17145 -10.734135,-5.93415 -16.467465,-4.98487 -9.692409,1.60477 -18.025478,16.4166 -28.52872,10.87406 -2.189037,-1.15515 -4.106373,-2.84949 -5.868237,-4.56616 -1.796692,-1.75061 -3.554027,-3.65943 -4.862476,-5.81162 -6.684528,-10.99496 9.041615,-19.54153 10.177872,-29.9906 0.610782,-5.61679 -2.745468,-11.02655 -4.866642,-15.99991 -2.395748,-5.61716 -3.846024,-12.49597 -8.004795,-17.13681 -6.691246,-7.46686 -21.307843,-7.11984 -30.581345,-7.86328 v -29 c 9.246765,-0.61453 23.923367,-0.4335 30.581345,-7.86328 4.158557,-4.64063 5.609619,-11.51959 8.004646,-17.13681 2.118179,-4.967926 5.476696,-10.386291 4.776134,-15.999908 -1.240291,-9.938477 -16.289848,-18.459198 -10.730495,-28.994385 1.155174,-2.189087 2.849495,-4.106384 4.566177,-5.868255 1.750668,-1.796753 3.659344,-3.553986 5.8116,-4.862458 10.994995,-6.684478 19.541496,9.041626 29.990596,10.177887 5.61674,0.610779 11.02655,-2.745453 15.999915,-4.866638 5.61713,-2.395782 12.49601,-3.846039 17.13681,-8.004791 7.46686,-6.691284 7.11983,-21.307861 7.86328,-30.58136 7.16862,0 19.39067,-2.277313 25.63538,1.836517 6.93124,4.566101 4.32025,18.025147 8.08264,24.810334 3.71579,6.701141 11.71711,8.40448 18.28238,11.110504 3.98529,1.642639 7.85373,3.822723 11.9996,5.037506 13.11928,3.844116 20.06061,-13.676209 31.99927,-11.285462 3.47111,0.695099 6.40648,3.294526 8.86336,5.688385 1.7967,1.750641 3.55401,3.659394 4.86247,5.811615 6.70424,11.027405 -9.06972,19.595765 -10.38002,29.990601 -0.62548,4.961975 2.07606,9.617401 3.99778,13.997128 2.28624,5.21048 4.07905,10.54178 5.65714,16.00287 m 150.24374,14.19827 c -5.0513,1.35077 -9.35107,7.43881 -4.00689,11.4459 3.28961,2.46655 8.67111,2.53921 12.48739,1.50781 5.26508,-1.42295 8.19513,-7.23596 3.2587,-11.12497 -3.17151,-2.49857 -7.95157,-2.84159 -11.7392,-1.82874 m 31.6879,1.69922 c -4.14069,2.45621 -4.00488,7.7685 -1.5e-4,10.27365 3.99209,2.49729 10.99301,2.96247 14.98727,0.26016 4.09702,-2.77182 3.45981,-8.19091 -0.68213,-10.53274 -3.92257,-2.2178 -10.39981,-2.31757 -14.30499,-0.001 m 33.85544,8.31235 c -3.46048,1.50534 -3.97962,5.4108 -2.4324,8.51993 2.30441,4.63076 9.40707,9.94693 14.76873,7.36618 3.74164,-1.80097 3.73273,-6.33707 1.8284,-9.48868 -2.57718,-4.26511 -9.05063,-8.6221 -14.16473,-6.39743 m 22.1669,26.33368 c -7.90192,4.7453 0.40866,23.56528 8.91,18.67264 8.03876,-4.62641 0.0565,-24.05725 -8.91,-18.67264 m 4.69687,33.73266 c -4.8974,2.01423 -7.07739,9.56205 -6.31037,14.37415 0.63437,3.97989 4.2009,6.75491 8.19455,5.16788 5.12891,-2.03818 7.36481,-9.40192 6.331,-14.4249 -0.78308,-3.80469 -4.2829,-6.7344 -8.21518,-5.11713 M 463.663,234.03669 c -3.90851,1.56894 -8.03751,5.30084 -8.84784,9.59695 -1.01898,5.40244 4.24423,8.11856 8.84784,6.51962 4.06418,-1.41159 8.09174,-5.18182 9.10651,-9.45526 1.39315,-5.86679 -4.19132,-8.63434 -9.10651,-6.66131 m -32.9552,14.48553 c -5.29718,0.77994 -13.00906,6.76862 -6.66281,11.9101 2.58676,2.09567 6.39917,2.26709 9.55731,1.85595 13.25025,-1.72485 9.50543,-15.59179 -2.8945,-13.76605 m -349.018684,25.104 c -5.820214,0.74789 -13.624901,7.75857 -6.146576,12.56283 2.602951,1.67221 6.040787,1.77225 9.010285,1.33969 12.50861,-1.82202 8.80452,-15.40191 -2.863709,-13.90252 m -27.348038,11.45486 c -4.974506,-0.16147 -10.143345,4.23831 -11.974396,8.64142 -1.607151,3.86472 0.05737,8.41806 4.638451,8.72617 5.129169,0.34497 10.827103,-4.33588 12.497036,-8.99405 1.410396,-3.93424 -0.719269,-8.22937 -5.161091,-8.37354 m 186.309502,30.56949 c -6.95485,-1.3157 -14.97316,-2.99112 -19.74306,-8.72079 -2.34097,-2.81202 -4.0979,-7.55069 -1.29213,-10.68412 2.76755,-3.0907 7.54598,-1.69092 10.4827,0.33139 6.21289,4.27842 8.43666,12.25186 10.55249,19.07352 m 56,0 c 1.74133,-7.08765 4.0336,-14.9126 10.41113,-19.25458 2.76395,-1.88171 7.03702,-3.25512 9.87964,-0.74286 3.05469,2.69965 1.85889,7.45032 -0.1795,10.35428 -4.44117,6.327 -13.02976,8.13925 -20.11127,9.64316 M 30.372023,313.19409 c -4.523791,2.46893 -6.518482,9.29446 -5.566752,14.10364 0.828364,4.18579 4.883864,7.04998 8.925268,4.74066 4.321694,-2.46949 6.323327,-9.3714 5.579571,-14.03815 -0.692089,-4.34259 -4.848579,-7.03809 -8.938087,-4.80615 m 391.278557,17.45648 c 0.63379,5.19318 0.95795,10.98389 3.59497,15.6297 4.13345,7.28223 19.16168,14.10095 27.39999,12.3674 5.67289,-1.19369 10.5185,-5.5856 15.00504,-8.9971 h 1 c 2.70758,3.16592 6.05359,6.59351 6.16699,11.03546 0.1561,6.11554 -5.24615,10.83148 -5.49615,16.96454 -0.32868,8.06268 5.53686,21.30078 12.67642,25.33734 4.67493,2.6431 10.42956,3.02042 15.65274,3.66266 v 15 c -5.4339,0.54843 -11.63232,0.79193 -16.4408,3.66269 -6.84698,4.08783 -12.8142,18.54047 -11.86657,26.33731 0.80142,6.59387 9.43933,14.70044 3.22357,20.91617 -6.21579,6.21576 -14.3223,-2.42209 -20.9162,-3.22354 -7.79147,-0.94699 -22.16501,4.99551 -26.21692,11.86657 -2.83963,4.81528 -3.12356,11.01728 -3.78308,16.4408 h -15 c -0.65952,-5.42352 -0.94345,-11.62549 -3.78308,-16.4408 -4.05191,-6.87106 -18.42542,-12.81356 -26.21692,-11.86657 -6.5939,0.80145 -14.70041,9.4393 -20.9162,3.22354 -6.21579,-6.21573 2.42215,-14.32227 3.22357,-20.91617 0.94763,-7.79684 -5.01956,-22.24948 -11.86657,-26.33731 -4.80848,-2.87076 -11.0069,-3.11426 -16.4408,-3.66269 v -15 c 5.22321,-0.64224 10.97781,-1.01953 15.65274,-3.66266 7.13956,-4.03656 13.0051,-17.27466 12.67642,-25.33734 -0.25,-6.13306 -5.65225,-10.849 -5.49615,-16.96454 0.1134,-4.44198 3.45938,-7.86951 6.16699,-11.03546 h 1 c 4.48651,3.41147 9.33221,7.80341 15.00504,8.9971 8.23825,1.73355 23.26654,-5.08517 27.39999,-12.3674 2.63702,-4.64584 2.96118,-10.43652 3.59497,-15.6297 h 15 m -143,2 v 81 h -21 l 1,-81 h 20 M 29.295067,347.03781 c -9.223116,3.46371 -1.773254,23.59723 7.503683,19.39663 8.311546,-3.76345 1.334431,-22.71575 -7.503683,-19.39663 m 382.355513,23.39511 c -16.36002,0.98126 -31.13025,11.09946 -37.61499,26.21884 -2.35428,5.48914 -6.43366,19.79388 2.08868,22.43332 8.50861,2.63519 10.69849,-14.58514 13.72992,-19.34009 10.53031,-16.5173 32.86176,-18.92221 45.74842,-3.78729 15.01007,17.62875 2.46142,45.91766 -20.95209,46.52469 -5.34662,0.13861 -10.18814,-1.66193 -14.99695,-3.79648 -3.39078,-1.5051 -7.50079,-3.74057 -11.31024,-2.4548 -4.75864,1.60611 -4.49725,7.12033 -2.0119,10.55905 4.05792,5.6145 11.77524,8.51971 18.3193,9.83041 6.5037,1.30261 13.53018,1.25977 19.99982,-0.22067 5.7439,-1.31439 11.1427,-3.89551 15.83801,-7.448 33.50354,-25.34891 13.30963,-81.04706 -28.83798,-78.51898 m -80,21.21765 6,-21 c 8.02859,8.13455 4.69006,17.94656 -6,21 M 46.615858,377.19558 c -9.430668,5.34253 5.256768,19.22296 12.970185,15.33625 3.332771,-1.67936 3.447502,-5.63834 1.864936,-8.6027 -2.443821,-4.57757 -9.554348,-9.72515 -14.835121,-6.73355 m 31.958306,13.36155 c -4.268898,2.52008 -4.002823,8.04736 -0.04642,10.72927 3.784104,2.56513 10.253511,2.7937 14.199231,0.46079 4.25934,-2.51831 4.00402,-7.99201 0.0464,-10.66477 -3.78783,-2.55813 -10.23911,-2.86309 -14.199231,-0.52529 m 36.534576,-0.31635 c -4.50438,1.94287 -6.69162,7.70917 -2.23278,11.04846 3.62104,2.71192 10.10809,2.7262 14.0918,0.85599 4.76806,-2.2384 5.18024,-8.12122 0.80551,-11.05801 -3.51161,-2.35733 -8.84313,-2.49469 -12.66453,-0.84644 m 35,0 c -4.50438,1.94287 -6.69163,7.70914 -2.23277,11.04846 3.62105,2.71189 10.10808,2.7262 14.09179,0.85599 4.76807,-2.23843 5.18023,-8.12122 0.8055,-11.05801 -3.5116,-2.35733 -8.84312,-2.49469 -12.66452,-0.84644 m 35,0 c -4.5043,1.94281 -6.6918,7.70929 -2.2327,11.04846 3.63538,2.72235 10.13887,2.71836 14.1393,0.85599 4.39325,-2.0452 5.28592,-7.37607 1.46997,-10.53793 -3.487,-2.88926 -9.33571,-3.10944 -13.37657,-1.36652 m 129.54184,38.40979 c -3.1e-4,10.01208 1.81006,22.44385 -5.78943,30.29382 -6.22821,6.43351 -14.84222,6.66022 -23.21057,6.69907 -13.30313,0.0617 -26.70612,0.43164 -39.99985,-0.0894 -6.68611,-0.26205 -13.21669,-1.65466 -18.01149,-6.68545 -7.57345,-7.94628 -5.98796,-20.13174 -5.98866,-30.21804 h 93 m -28,52 c -10.40881,13.24652 -26.04044,14.57886 -36,0 z"
       id="path1" />
  </g>
</svg>
