<?xml version="1.0" encoding="UTF-8" standalone="no"?>
<!-- Created with Inkscape (http://www.inkscape.org/) -->

<svg
   version="1.1"
   id="svg1"
   width="441.45731"
   height="461.76013"
   viewBox="0 0 441.45731 461.76013"
   xmlns="http://www.w3.org/2000/svg"
   xmlns:svg="http://www.w3.org/2000/svg">
  <defs
     id="defs1" />
  <g
     id="g1"
     transform="translate(-30.075745,-21.907825)">
    <path
       style="fill:#050505;stroke:none"
       d="m 376.446,216.39771 c 3.91507,4.08228 8.51871,8.32666 9.95981,14.00861 1.83453,7.23306 -0.0879,14.02539 3.67639,20.99139 4.5994,8.51123 12.60977,15.24146 19.36444,22 7.6326,7.6369 15.0434,16.39764 23.99936,22.52087 16.08322,10.99619 39.7525,0.32431 37.99448,-20.5209 -0.76072,-9.01996 -7.04508,-15.81149 -13.05454,-21.99997 -6.88086,-7.08582 -13.91678,-14.03537 -20.93994,-20.97998 -5.09274,-5.03577 -10.34436,-10.70575 -17,-13.66574 -10.46292,-4.6532 -25.37384,0.61432 -30.49637,-13.38785 -1.71734,-4.69427 1.06955,-9.0614 3.40744,-12.96643 3.68628,-6.15732 7.15445,-12.36572 9.92322,-19 7.9512,-19.05197 10.11706,-40.68369 6.59824,-61 C 407.342,97.7529 401.92818,83.91611 393.90627,71.397713 363.00206,23.170937 296.90804,7.7533338 247.446,36.01371 c -12.91713,7.38028 -24.32034,17.498139 -33.26314,29.384308 -7.88728,10.483246 -12.19244,21.919222 -23.77608,29.060242 -39.59234,24.40771 -80.73612,46.53759 -120.960783,69.89334 -13.160186,7.64123 -37.595469,15.53885 -38.835204,33.05795 -1.098744,15.5267 -0.164795,31.42413 -0.164795,46.98816 v 89 l 0.0025,33.99994 c 0.01174,6.04697 -0.577179,13.06393 2.966549,18.32678 3.074795,4.56641 8.416847,7.31622 13.037349,10.03803 8.28793,4.88217 16.67841,9.59057 24.993651,14.4262 30.274533,17.60584 60.675433,34.99726 91.000003,52.51694 8.99403,5.19623 17.9608,10.44022 27,15.55802 4.86443,2.75415 10.16499,6.06985 16,5.28805 11.00635,-1.47473 22.54677,-11.14117 32,-16.57431 22.34973,-12.84515 44.70731,-25.68188 67,-38.62573 l 48.99997,-28.32675 c 6.88834,-4.0051 16.50729,-7.8389 20.62915,-15.0611 2.95822,-5.18332 2.36124,-11.81888 2.36929,-17.5661 l 0.002,-30.99997 v -120 m -83,-179.520413 c 11.04581,-1.046051 22.28439,0.0036 33,2.851989 63.82697,16.966218 91.02698,95.964014 51.37125,148.667324 -7.43055,9.87537 -16.74195,18.29184 -27.37125,24.60037 -12.48181,7.40799 -26.595,11.4863 -41,12.85074 -11.38507,1.07837 -23.00912,-0.42044 -34,-3.47491 -10.81827,-3.00653 -21.00012,-8.0202 -29.99889,-14.73444 -40.50695,-30.22348 -50.56953,-89.88751 -20.94946,-131.240352 7.91104,-11.044678 18.21938,-20.373596 29.94835,-27.211426 11.85999,-6.914215 25.35126,-11.016754 39,-12.309295 m 6.70648,22.441742 c -4.79834,2.620361 -4.60782,8.467132 0,11.147705 6.10941,3.554077 14.62412,3.100616 21.29352,5.526062 15.91348,5.787231 28.95468,18.755154 35.25888,34.404904 2.78418,6.9115 2.76074,14.77304 5.71649,21.50391 1.42636,3.24813 4.67841,5.90145 8.34885,4.31427 3.76272,-1.62711 4.47235,-6.23355 4.51935,-9.85575 0.10565,-8.14276 -2.17789,-16.52539 -5.35202,-23.96243 -8.69779,-20.37912 -26.14759,-36.010465 -47.49155,-42.074735 -6.41684,-1.82315 -16.01266,-4.433898 -22.29352,-1.003936 M 194.446,108.39771 c -2.23961,18.82858 -1.45229,35.37799 2,54 -23.18117,11.88574 -45.43739,25.83258 -68,38.84763 -8.34328,4.81274 -19.97018,14.74557 -30.000003,14.51953 -5.76614,-0.12995 -11.1727,-4.03131 -16,-6.79111 -10.06216,-5.75262 -20.128142,-11.50052 -29.999999,-17.57605 v -1 l 142.000002,-82 m 7,67 15,26 c -18.59,9.98923 -36.74397,20.88031 -55,31.46567 -7.69749,4.46322 -19.06187,8.85208 -23.62912,16.93118 -4.30205,7.60999 -2.37088,19.18469 -2.37088,27.60315 v 60 h -1 c -3.1723,-5.4238 -7.04353,-14.3143 -14.20663,-15.03198 -5.09967,-0.51093 -10.37411,2.92438 -14.79337,5.03198 v -66 c 0,-8.716 -2.25799,-21.42838 1.83654,-29.40488 4.43963,-8.64877 18.13026,-13.5578 26.16346,-18.17477 22.39528,-12.87134 44.46832,-27.73422 68,-38.42035 m -83,161 c 4.97405,8.61053 9.57135,17.74564 15.36136,25.83923 2.187,3.05713 5.72929,7.47916 10.0619,6.42417 8.20293,-1.99741 5.57657,-19.25458 5.57672,-25.2634 l 2e-5,-80 29.99785,17.04718 14.69996,10.87262 2.30004,16.08093 0.002,32.99927 v 125 l -40,-22.15469 -69.000003,-39.8508 -27.992598,-16.15329 -13.170861,-10.56296 -1.835994,-17.27844 -5.46e-4,-32.99982 v -123 c 11.094418,4.95892 21.489899,11.49429 31.992599,17.58194 4.84161,2.80634 11.15873,5.737 13.56883,11.1398 3.30566,7.41037 1.43857,18.34213 1.43857,26.27826 v 56 c 3e-5,7.48825 -2.86452,24.08423 4.93423,28.64981 6.460893,3.78238 16.397143,-3.87991 22.065773,-6.64981 m 156,-99 v 1 c -16.63159,8.77386 -32.69347,18.63684 -49,27.99442 -6.59088,3.78219 -14.98601,10.55081 -23,9.84231 -6.10374,-0.53964 -11.8488,-4.80658 -17,-7.79181 -9.30658,-5.39331 -18.63382,-10.75574 -28,-16.04492 v -2 c 15.8905,-8.53867 31.39009,-17.8472 47,-26.88562 6.20088,-3.59042 14.4015,-10.33859 22,-9.42526 6.95575,0.83606 13.24228,7.16668 19,10.7326 9.06958,5.61704 18.83615,9.45612 29,12.57828 m 88,-14 v 108 l -0.001,28.99982 -1.83542,16.40271 -13.17087,10.63885 -26.99271,15.58594 -68,39.25891 -42,23.11377 v -127 l 0.004,-31.99774 2.83246,-15.73786 12.17088,-8.83789 20.99266,-12.14019 48,-26.66809 30,-4.63242 38,-14.98581 m 47.24435,9.00021 c 5.38523,-0.64834 10.12702,3.84095 13.75574,7.18512 9.64102,8.88507 20.26697,18.40134 28.2623,28.81308 3.87265,5.04309 6.43768,14.86014 -2.53229,16.353 -5.75653,0.95804 -10.88757,-3.95041 -14.73013,-7.51779 -9.52664,-8.84442 -20.41644,-18.30249 -28.08542,-28.8309 -3.73508,-5.12772 -5.49573,-14.93998 3.3298,-16.00251 z"
       id="path1" />
  </g>
</svg>
