<?xml version="1.0" encoding="UTF-8" standalone="no"?>
<!-- Created with Inkscape (http://www.inkscape.org/) -->

<svg
   version="1.1"
   id="svg1"
   width="512.63055"
   height="478.25415"
   viewBox="0 0 512.63055 478.25415"
   sodipodi:docname="sobresalir.svg"
   inkscape:version="1.3.2 (091e20e, 2023-11-25, custom)"
   xmlns:inkscape="http://www.inkscape.org/namespaces/inkscape"
   xmlns:sodipodi="http://sodipodi.sourceforge.net/DTD/sodipodi-0.dtd"
   xmlns="http://www.w3.org/2000/svg"
   xmlns:svg="http://www.w3.org/2000/svg">
  <sodipodi:namedview
     id="namedview1"
     pagecolor="#ffffff"
     bordercolor="#000000"
     borderopacity="0.25"
     inkscape:showpageshadow="2"
     inkscape:pageopacity="0.0"
     inkscape:pagecheckerboard="0"
     inkscape:deskcolor="#d1d1d1"
     inkscape:zoom="1.6455686"
     inkscape:cx="256.44632"
     inkscape:cy="239.12708"
     inkscape:window-width="1920"
     inkscape:window-height="1001"
     inkscape:window-x="-9"
     inkscape:window-y="-9"
     inkscape:window-maximized="1"
     inkscape:current-layer="svg1" />
  <defs
     id="defs1" />
  <g
     id="g1"
     transform="translate(0.60109693,-18.210106)"
     style="fill:#2c3e50;fill-opacity:1">
    <path
       style="fill:#2c3e50;stroke:none;fill-opacity:1"
       d="m 288,433.30114 h 158 c 12.99979,0 26.00024,0.036 39,-0.004 6.95853,-0.0215 14.66217,0.30526 20.35501,-4.3956 6.53906,-5.39966 6.5986,-13.81922 6.63748,-21.6001 0.0783,-15.66619 0.008,-31.33422 0.008,-47.0003 v -200 c 0,-17.3331 0.0493,-34.66699 -0.004,-52 -0.026,-8.394377 0.12063,-17.717407 -7.47647,-23.13342 C 498.35815,80.775447 490.19043,81.316005 483,81.303401 l -39,-0.0023 H 288 c 0,-12.998718 0.0984,-26.00177 -0.0143,-38.999969 -0.0612,-7.065033 -0.31812,-14.657074 -5.88294,-19.806855 C 276.48767,17.297969 269.00482,17.811275 262,18.988826 251.63852,20.730647 241.32874,22.839229 231,24.765376 183.6579,33.59399 136.34872,42.600704 89,51.393825 70.327545,54.861476 51.660271,58.363338 33,61.895961 24.497179,63.505672 13.605257,63.991634 6.7061925,69.776943 0.85052824,74.687282 0.14733486,82.159755 0.03151378,89.301235 -1.3732387,175.91778 0,262.67193 0,349.30114 l 3.2604145e-5,65 C 4.3196889e-4,423.34859 -1.6631179,435.0844 4.5005622,442.60088 c 4.7396493,5.77991 12.5707628,7.10389 19.4995198,8.46891 12.642977,2.49075 25.330511,4.78585 37.999918,7.13867 51.68307,9.5979 103.34314,19.32785 155,29.06595 13.66272,2.57565 27.3243,5.16626 41,7.67205 7.13135,1.30671 15.01492,3.04761 21.62177,-0.99633 6.99581,-4.28205 8.19314,-12.11307 8.34057,-19.64917 C 288.22952,460.64355 288,446.96111 288,433.30114 m 192,-320 v 288 H 288 v -32 l 30,-6e-5 c 6.21298,-6.1e-4 12.88428,0.57776 18.97885,-0.84955 6.96961,-1.6322 13.73114,-7.51855 13.73114,-15.14868 0,-7.65802 -6.79974,-13.34595 -13.73114,-15.03977 -6.09952,-1.49053 -12.75094,-0.96072 -18.97885,-0.96179 l -30,-1.5e-4 v -32 l 30,-6e-5 c 6.21298,-6.1e-4 12.88428,0.57776 18.97885,-0.84955 6.96961,-1.6322 13.73114,-7.51858 13.73114,-15.14868 0,-7.65802 -6.79974,-13.34595 -13.73114,-15.03977 -6.09952,-1.49053 -12.75094,-0.96072 -18.97885,-0.96179 l -30,-1.5e-4 v -32 l 30,-6e-5 c 6.21295,-5.5e-4 12.88428,0.57776 18.97885,-0.84952 6.96958,-1.63217 13.73114,-7.51861 13.73114,-15.14871 0,-7.65799 -6.79977,-13.34595 -13.73114,-15.03977 -6.09952,-1.49053 -12.75094,-0.96072 -18.97885,-0.96179 l -30,-1.5e-4 v -32 l 30,-6e-5 c 6.21298,-5.5e-4 12.88428,0.57776 18.97885,-0.84952 6.96958,-1.63217 13.73114,-7.51865 13.73114,-15.14871 0,-7.65802 -6.79977,-13.34595 -13.73114,-15.03977 -6.09952,-1.49053 -12.75094,-0.96072 -18.97885,-0.96179 l -30,-1.5e-4 v -32 h 192 m -82.94675,33.22168 c -12.75781,3.75189 -16.55938,20.09866 -4.70141,27.61276 8.10782,5.13773 20.49011,3.20383 29.64816,3.15805 4.61719,-0.0231 9.49225,0.12467 13.91867,-1.39239 12.22586,-4.19013 15.07428,-20.22351 3.72949,-27.31253 -7.77566,-4.85877 -18.89761,-3.30863 -27.64816,-3.28348 -4.94836,0.0142 -10.14935,-0.19327 -14.94675,1.21759 M 150,279.30114 c -9.6821,11.31863 -18.63312,23.24792 -27.77808,34.99994 -5.15454,6.62396 -10.20745,14.6911 -17.39042,19.30173 -11.536387,7.405 -26.76591,-2.62958 -23.44987,-16.30295 1.651947,-6.81165 6.781341,-12.58426 10.961143,-17.99872 l 20.989557,-26.99969 c 3.65112,-4.69953 9.79099,-10.5221 10.6754,-16.66712 0.85148,-5.91626 -5.22721,-11.32532 -8.71218,-15.3425 -10.30149,-11.87463 -23.142779,-23.4725 -31.252185,-36.99069 -4.291572,-7.15393 -4.323257,-16.04504 2.548562,-21.66052 6.226905,-5.08847 14.181113,-3.88251 20.271723,0.69958 10.59472,7.97061 18.82373,20.07294 27.5769,29.94614 3.40122,3.83642 9.00905,11.98468 15.12015,10.13769 5.80078,-1.75317 10.15967,-9.62887 13.66122,-14.12396 9.55806,-12.27011 18.63645,-25.18893 28.93506,-36.84884 6.95783,-7.87754 18.16274,-13.59675 26.80397,-4.35837 8.50608,9.09387 1.8673,20.06207 -4.24354,28.20828 -10.12529,13.49777 -20.70635,26.66797 -31.04863,40 -3.74477,4.8273 -10.51148,11.33496 -9.89357,18 0.63672,6.86801 8.02788,13.12311 12.28863,18 8.15724,9.33685 16.36484,18.63083 24.48493,28 4.59108,5.2973 10.24734,11.00269 12.03399,17.99921 3.55477,13.92041 -11.95787,23.50872 -23.5103,16.30294 -7.5411,-4.7037 -13.22967,-12.69821 -19.00982,-19.30221 C 169.93925,302.73476 159.55309,291.34792 150,279.30114 m 247.05325,-68.77832 c -12.75781,3.75189 -16.55938,20.09866 -4.70141,27.61276 8.10782,5.13773 20.49011,3.20383 29.64816,3.15805 4.61719,-0.0231 9.49228,0.12464 13.91867,-1.39239 12.22589,-4.19013 15.07428,-20.22351 3.72949,-27.31253 -7.77566,-4.8588 -18.89761,-3.30863 -27.64816,-3.28348 -4.94836,0.0142 -10.14935,-0.19327 -14.94675,1.21759 m 0,64 c -12.75784,3.75189 -16.55935,20.09863 -4.70141,27.61276 8.10782,5.13773 20.49014,3.20377 29.64816,3.15802 4.61719,-0.0231 9.49228,0.12467 13.91867,-1.39236 12.22592,-4.19013 15.07428,-20.22357 3.72949,-27.31256 -7.77563,-4.85874 -18.89764,-3.3086 -27.64816,-3.28345 -4.94843,0.0142 -10.14935,-0.19324 -14.94675,1.21759 m 0,64 c -12.75784,3.75189 -16.55935,20.09863 -4.70141,27.61276 8.10782,5.13773 20.49014,3.20377 29.64816,3.15802 4.61719,-0.0231 9.49228,0.12467 13.91867,-1.39236 12.22592,-4.19013 15.07428,-20.22357 3.72949,-27.31256 -7.77563,-4.85871 -18.89764,-3.3086 -27.64816,-3.28345 -4.94843,0.0142 -10.14935,-0.19327 -14.94675,1.21759 z"
       id="path1" />
  </g>
</svg>
