<?xml version="1.0" encoding="UTF-8" standalone="no"?>
<!-- Created with Inkscape (http://www.inkscape.org/) -->

<svg
   version="1.1"
   id="svg1"
   width="513.08411"
   height="513.23895"
   viewBox="0 0 513.08411 513.23895"
   xmlns="http://www.w3.org/2000/svg"
   xmlns:svg="http://www.w3.org/2000/svg">
  <defs
     id="defs1" />
  <g
     id="g1"
     transform="translate(-0.58812082,0.29927996)">
    <path
       style="fill:#2c3e50;fill-opacity:1;stroke:none"
       d="M 59.301144,0.64212059 C 27.316065,4.6316226 3.3249416,30.983612 1.4990666,63 -0.42792111,96.789368 1.3011436,131.15436 1.3011436,165 v 198 l 3e-7,64 c 1.38e-5,20.19739 -0.188496,39.74811 12.0155741,56.9895 C 39.435368,520.88873 88.995144,512 128.30114,512 h 219 70 c 13.49371,0 27.65024,1.17932 41,-1.08325 32.10001,-5.44055 54.01645,-32.8873 54.92313,-64.91675 0.9609,-33.94574 0.0769,-68.04004 0.0769,-102 V 146 85.999998 c 0,-21.926634 0.0989,-42.852842 -14.23682,-60.958891 C 480.25292,1.2822876 454.14495,-4.1423126e-7 426.30114,-4.1423126e-7 h -44 -214 -68.999996 c -13.201599,0 -26.878937,-0.99444499576874 -40,0.64212100423126 M 483.30114,279 c -20.67596,-19.92648 -37.7103,-44.71439 -55.7843,-67 -9.4498,-11.65176 -18.8057,-25.89346 -33.21597,-31.75922 C 367.97469,169.52463 349.04922,192.2522 332.30114,209 l -81,81 c -7.3306,7.3306 -14.63034,14.69354 -22,21.98486 -3.7444,3.70459 -7.86479,8.65897 -13,10.42261 -8.27502,2.84198 -17.37346,-7.80527 -23,-12.49127 -15.12413,-12.59589 -32.25471,-32.49725 -53,-34.44937 -17.61456,-1.6575 -30.50327,10.40542 -42.999996,20.99978 -21.868225,18.53919 -43.118103,38.25501 -66,55.53339 V 128 l 2.9e-4,-48.000002 c 0.0038,-13.359404 -0.0873,-26.801939 9.243111,-37.48123 C 51.223736,30.295715 66.315731,30.004517 81.301144,30.000275 L 130.30114,30 h 248 l 55,2.75e-4 c 15.39029,0.0043 30.90445,0.421631 41.50171,13.401458 8.4284,10.323334 8.4913,22.953675 8.49774,35.598265 L 483.30114,111 v 168 m -328,-215.406769 c -10.53835,1.138672 -20.91861,4.26294 -29.99985,9.794647 -8.28198,5.04486 -15.67933,11.78571 -21.40159,19.61841 -27.39997,37.505372 -11.429336,92.367312 31.40144,109.887912 11.31685,4.62933 23.87711,5.93386 36,4.64529 9.78441,-1.04001 19.53874,-4.28983 27.99971,-9.30261 44.18288,-26.17667 47.2065,-90.66675 5.96399,-120.994782 -7.22733,-5.31467 -15.28915,-9.190432 -23.9637,-11.469912 -8.51366,-2.237213 -17.2317,-3.126373 -26,-2.178955 m 4,30.050877 c 5.36136,-0.4364 10.86475,0.2128 15.99994,1.80685 35.32275,10.964872 38.87462,60.269042 6.97494,77.512452 -4.95257,2.67712 -10.3594,4.31598 -15.97488,4.74454 -6.06007,0.46249 -12.26202,-0.14222 -17.99985,-2.19947 -5.06297,-1.8153 -9.76678,-4.62503 -13.78235,-8.20147 -27.32363,-24.33567 -11.65126,-70.697302 24.7822,-73.662902 M 378.27633,208.62994 c 7.44949,-1.47363 12.82242,5.37818 17.04166,10.41547 11.02343,13.16077 21.68515,26.63736 32.51892,39.95459 l 35.74246,44 c 6.1944,7.60974 14.71329,15.64383 18.1416,25 3.20087,8.7355 1.58017,19.84296 1.58017,29 v 57 c 0,24.62238 3.93784,57.22635 -26.00198,66.10513 C 443.9327,484.06903 428.09896,482 414.30114,482 h -81 -185 -56.999996 c -10.776466,0 -22.488411,1.19589 -32.998913,-1.61438 -3.474842,-0.92908 -6.820942,-2.34198 -9.880649,-4.23724 C 28.311173,463.69153 31.301138,439.3974 31.301144,419 c 2e-6,-8.74933 -2.035782,-20.74841 2.83654,-28.49902 5.772743,-9.18293 16.984265,-16.18302 25.16346,-23.1185 17.358749,-14.71921 34.675453,-29.49033 51.999996,-44.24988 7.28654,-6.20773 18.18488,-19.21823 29,-16.32294 7.2126,1.93088 13.38527,8.4061 19,13.01328 11.72578,9.62158 23.29918,19.42675 35,29.07837 10.02669,8.27066 19.77652,16.34066 32,7.12924 13.16342,-9.91977 24.37054,-23.387 35.99811,-35.03055 24.14679,-24.17999 47.83108,-48.82922 72.00189,-73 9.32553,-9.32553 18.57608,-18.73419 28,-27.96042 4.4411,-4.34796 9.58154,-10.14487 15.97519,-11.40964 z"
       id="path1" />
  </g>
</svg>
