<?xml version="1.0" encoding="UTF-8" standalone="no"?>
<!-- Created with Inkscape (http://www.inkscape.org/) -->

<svg
   version="1.1"
   id="svg1"
   width="464.21555"
   height="385.51187"
   viewBox="0 0 464.21555 385.51187"
   sodipodi:docname="abrir-documento.svg"
   inkscape:version="1.3.2 (091e20e, 2023-11-25, custom)"
   xmlns:inkscape="http://www.inkscape.org/namespaces/inkscape"
   xmlns:sodipodi="http://sodipodi.sourceforge.net/DTD/sodipodi-0.dtd"
   xmlns="http://www.w3.org/2000/svg"
   xmlns:svg="http://www.w3.org/2000/svg">
  <sodipodi:namedview
     id="namedview1"
     pagecolor="#ffffff"
     bordercolor="#000000"
     borderopacity="0.25"
     inkscape:showpageshadow="2"
     inkscape:pageopacity="0.0"
     inkscape:pagecheckerboard="0"
     inkscape:deskcolor="#d1d1d1"
     inkscape:zoom="2.0414417"
     inkscape:cx="232.18885"
     inkscape:cy="192.75594"
     inkscape:window-width="1920"
     inkscape:window-height="1001"
     inkscape:window-x="-9"
     inkscape:window-y="-9"
     inkscape:window-maximized="1"
     inkscape:current-layer="g1" />
  <defs
     id="defs1" />
  <g
     id="g1"
     transform="translate(-30.712282,-56.720486)">
    <path
       style="fill:#2c3e50;stroke:none;fill-opacity:1"
       d="m 393.75858,164.49429 43,-1 c -4.25223,-26.60163 -15.77691,-49.94373 -43,-59.38807 -14.09018,-4.888214 -29.32577,-3.61193 -44,-3.61193 h -60 c -10.82348,0 -22.25824,1.03009 -33,-0.41443 -8.69093,-1.168744 -15.90191,-6.859594 -23,-11.586374 -13.87385,-9.23892 -27.79013,-20.790067 -43,-27.696774 -14.2392,-6.465943 -33.71364,-3.30243 -49,-3.30243 -35.75803,0 -76.037139,-5.64624 -99.279083,28.035464 -3.582098,5.1911 -6.381019,10.94189 -8.254587,16.964544 -3.699877,11.8934 -3.464363,24.67941 -3.466194,37 l -1.39e-4,45 v 159 c 0,29.70501 -2.119244,60.30639 22.319168,81.87606 25.047943,22.10764 61.835755,16.12394 92.680835,16.12394 h 222 c 28.88739,0 57.86475,2.52526 79.72132,-20.14557 3.99557,-4.14444 7.46756,-8.76886 10.17596,-13.8545 8.43259,-15.8341 10.02478,-35.61016 13.50272,-52.99993 l 19.20001,-96 c 3.84051,-19.20258 9.5296,-38.866 -3.72232,-55.92685 -18.0773,-23.27317 -51.93952,-17.07315 -77.87769,-17.07315 h -170 c -26.90788,0 -57.56819,-4.45679 -80.94794,11.69439 -22.82675,15.7692 -26.79423,41.026 -31.85198,66.30561 l -16.40008,82 c -2.84563,14.22814 -4.92707,28.90203 -8.73419,42.90509 -4.677836,17.20571 -22.513285,4.65704 -25.844134,-6.91263 -2.174789,-7.55411 -1.221603,-16.21714 -1.221679,-23.99246 v -44 -142 l 0.0012,-37 c 0.01198,-11.61832 0.307816,-23.18634 11.135063,-30.24579 9.921738,-6.469064 25.56877,-3.75421 36.86371,-3.75421 l 33,2.1e-4 c 6.97737,0.002 14.39066,-0.566624 21,2.0766 22.09746,8.83722 38.49915,29.86059 61,37.89654 9.59763,3.42771 20.9747,2.02665 31,2.02665 h 58 c 23.3302,0 61.22562,-7.98346 68,22 m 59,64 c -5.58182,39.53027 -15.26993,78.91418 -23.37533,118 -2.88187,13.89697 -3.07987,35.98919 -14.16382,46.10284 -6.83191,6.23379 -15.80536,5.88522 -24.46085,5.89572 l -48,0.001 h -200 c 5.58293,-39.53791 15.36917,-78.84574 23.2,-118 2.80665,-14.03327 3.16237,-35.9339 14.32626,-46.15043 6.83594,-6.25586 15.80945,-5.83883 24.47374,-5.84829 l 48,-10e-4 z"
       id="path1" />
  </g>
</svg>
