<?xml version="1.0" encoding="UTF-8" standalone="no"?>
<!-- Created with Inkscape (http://www.inkscape.org/) -->

<svg
   version="1.1"
   id="svg1"
   width="417.70309"
   height="512.68842"
   viewBox="0 0 417.70309 512.68842"
   sodipodi:docname="archivo-pdf.svg"
   inkscape:version="1.3.2 (091e20e, 2023-11-25, custom)"
   xmlns:inkscape="http://www.inkscape.org/namespaces/inkscape"
   xmlns:sodipodi="http://sodipodi.sourceforge.net/DTD/sodipodi-0.dtd"
   xmlns="http://www.w3.org/2000/svg"
   xmlns:svg="http://www.w3.org/2000/svg">
  <sodipodi:namedview
     id="namedview1"
     pagecolor="#ffffff"
     bordercolor="#000000"
     borderopacity="0.25"
     inkscape:showpageshadow="2"
     inkscape:pageopacity="0.0"
     inkscape:pagecheckerboard="0"
     inkscape:deskcolor="#d1d1d1"
     inkscape:zoom="1.5350454"
     inkscape:cx="209.11433"
     inkscape:cy="256.34421"
     inkscape:window-width="1920"
     inkscape:window-height="1001"
     inkscape:window-x="-9"
     inkscape:window-y="-9"
     inkscape:window-maximized="1"
     inkscape:current-layer="svg1" />
  <defs
     id="defs1" />
  <g
     id="g1"
     transform="translate(-36.655721,0.08663)"
     style="fill:#2c3e50;fill-opacity:1">
    <path
       style="fill:#2c3e50;stroke:none;fill-opacity:1"
       d="m 65.891995,256.65057 c -10.75647,0.52914 -21.516037,3.80588 -25.430756,15.03748 -4.489181,12.87982 -1.569244,30.46319 -1.569244,43.96252 v 67 c 0,11.05115 -1.919209,24.28653 1.255054,34.97665 3.521317,11.85895 14.585148,15.57355 25.744946,16.02335 0,26.45612 -0.538132,52.83328 24.053917,69.44504 13.711238,9.26184 29.023638,9.55365 44.946088,9.5549 l 36,6e-5 h 183 c 30.90448,0 69.35294,6.33319 90.38782,-22.06177 2.93216,-3.9581 5.32864,-8.33005 7.06982,-12.93826 2.43134,-6.43478 3.32919,-13.15656 3.48615,-19.99997 1.82498,-79.57587 0.0562,-159.40106 0.0562,-239 v -63 c 0,-9.30585 1.76178,-20.76312 -3.43854,-29 -7.83322,-12.4072 -21.233,-22.67154 -31.56146,-32.999999 -20.20731,-20.207306 -40.2771,-40.540802 -61,-60.218689 -7.13623,-6.776367 -13.96786,-13.861755 -21,-20.74414 -4.37808,-4.2848203 -8.98242,-9.0820921 -15,-10.9318235 -5.37375,-1.65179447 -11.44916,-1.10342407 -17,-1.10510257 L 278.892,0.65057183 h -91 -46 c -25.36285,0 -49.124018,0.49719227 -65.647398,23.01193117 C 61.431691,43.846555 65.891995,72.090879 65.891995,95.650571 V 256.65057 M 313.892,33.650571 v 54 c 3e-5,17.488649 -0.47391,33.739069 14.18878,46.036929 11.08216,9.29477 24.15698,8.96191 37.81122,8.96301 l 55,6e-5 c 0,81.31464 1,162.65485 1,244 l -10e-4,59 c -0.009,9.47452 0.59604,19.89566 -6.78085,27.05286 -7.5625,7.33728 -18.4274,6.93075 -28.21802,6.94516 l -56.00013,0.002 h -160 c -12.99974,0 -26.00035,0.043 -39,-0.006 -8.0544,-0.0304 -16.72485,0.0984 -23.52554,-4.89557 -12.495638,-9.17594 -9.474458,-27.55955 -9.474458,-41.09843 H 293.892 l 50,-1.5e-4 c 8.88934,-10e-4 19.01169,1.05099 26.87927,-3.90686 13.37085,-8.42588 12.1196,-24.29062 12.12067,-38.09299 l -10e-4,-97 c -0.0119,-13.44263 -0.31351,-28.0921 -14.05755,-35.0531 -8.08809,-4.09641 -18.16231,-2.94647 -26.94139,-2.94687 l -52,-3e-5 H 98.892002 V 98.650571 c 0,-11.332764 -0.0609,-22.66745 0.0108,-34 0.0545,-8.617218 0.47186,-17.512177 6.996028,-23.958435 6.44781,-6.37085 15.43717,-6.946045 23.99317,-7.024445 10.99847,-0.100769 22.0011,-0.01712 33,-0.01712 h 151 m -197,326.999999 v 33 H 95.892002 v -91 c 17.288838,-2.52228 42.072878,-6.09473 56.583618,6.16199 13.99339,11.8197 11.79558,34.81634 -2.71521,45.13751 -9.50726,6.76227 -21.6221,7.43433 -32.86841,6.7005 m 59,33 v -91 c 20.41902,-2.86603 45.9547,-5.27863 63.95129,6.9325 25.39008,17.22775 22.478,60.87533 -2.97087,76.60858 -17.83337,11.02508 -41.03337,8.87851 -60.98042,7.45892 m 152,-92 v 17 h -36 v 21 h 34 v 17 h -34 v 37 h -21 v -92 h 57 m -211,43 c 3.97884,-0.0371 8.0771,0.0657 11.96808,-0.89716 2.61593,-0.64733 5.11018,-1.77386 7.14905,-3.56292 7.25969,-6.37024 5.26281,-17.39551 -3.306,-21.42716 -4.24491,-1.99725 -11.7238,-2.96853 -14.37257,1.99491 -3.36554,6.30661 -1.43855,16.94555 -1.43856,23.89233 m 80,-27 v 60 c 9.97827,0.87186 20.64169,0.0863 28.44824,-6.96527 13.68555,-12.36206 13.02338,-39.95517 -3.53966,-49.52411 -7.63874,-4.41315 -16.4121,-4.40533 -24.90858,-3.51062 z"
       id="path1" />
  </g>
</svg>
